<svg version="1.1" id="Layer_1" xmlns="http://www.w3.org/2000/svg" xmlns:xlink="http://www.w3.org/1999/xlink" x="0px" y="0px"
	 width="100%" viewBox="0 0 1920 544" enable-background="new 0 0 1920 544" xml:space="preserve">
<path fill="#C69E4D" opacity="1.000000" stroke="none" 
	d="
M1486.497803,444.678345 
	C1486.166748,444.683258 1485.835815,444.688141 1484.993408,444.590668 
	C1478.343750,445.706024 1472.254028,447.405792 1466.056030,448.028748 
	C1456.721924,448.966919 1447.312012,449.152191 1437.934326,449.657532 
	C1436.219238,449.479828 1434.504150,449.302094 1432.096924,448.891998 
	C1427.914795,448.302338 1424.424561,447.945068 1420.934448,447.587769 
	C1420.492432,447.459930 1420.050415,447.332092 1419.073730,446.948639 
	C1417.666748,446.691071 1416.794556,446.689117 1415.922363,446.687164 
	C1415.489868,446.527435 1415.057495,446.367676 1414.120361,445.959656 
	C1413.052490,445.683533 1412.489014,445.655731 1411.925659,445.627930 
	C1411.489624,445.489899 1411.053589,445.351837 1410.065308,444.953430 
	C1407.986328,444.393677 1406.459473,444.094330 1404.932739,443.794922 
	C1404.475464,443.583496 1404.018188,443.372040 1403.151611,442.921326 
	C1402.742310,442.682068 1402.416260,442.514587 1402.416260,442.514587 
	C1402.416260,442.514587 1402.120728,442.731812 1402.120728,442.731812 
	C1401.648315,442.555664 1401.175781,442.379517 1400.139526,441.882751 
	C1396.715820,440.526672 1393.855957,439.491241 1390.697998,438.279846 
	C1389.326538,437.732239 1388.253296,437.360535 1387.080078,436.693726 
	C1386.318115,436.038269 1385.656006,435.677948 1384.749023,435.172882 
	C1384.133423,434.973480 1383.762573,434.918793 1383.208984,434.626770 
	C1382.870728,434.264282 1382.715576,434.139221 1382.579834,433.860352 
	C1382.599243,433.706512 1382.340454,433.539429 1382.340454,433.539429 
	C1382.340454,433.539429 1382.103516,433.737335 1381.792236,433.523254 
	C1380.566284,432.893707 1379.651855,432.478241 1378.724609,431.868500 
	C1378.545044,431.397278 1378.320435,431.337799 1377.736572,431.269531 
	C1374.770020,429.557678 1372.105225,428.072083 1369.328613,426.267273 
	C1365.657349,423.250549 1362.097778,420.553040 1358.398193,417.528076 
	C1354.942993,413.971375 1351.627808,410.742126 1348.112061,407.262024 
	C1345.343384,404.137299 1342.775269,401.263397 1340.252930,398.072998 
	C1339.352173,396.505493 1338.405640,395.254486 1337.325928,393.665283 
	C1334.577393,389.246826 1331.962036,385.166565 1329.291504,380.701904 
	C1328.751587,378.885651 1328.266724,377.453705 1327.734619,375.795288 
	C1327.542725,375.282684 1327.328613,375.064789 1327.030029,374.547119 
	C1326.771851,373.490723 1326.528687,372.802307 1326.409302,371.837097 
	C1326.041016,371.011963 1325.549072,370.463623 1324.996338,369.556091 
	C1324.427246,367.833160 1323.918823,366.469452 1323.511230,364.756622 
	C1322.527100,362.114563 1321.442383,359.821594 1320.360596,357.269836 
	C1320.274414,356.678864 1320.185181,356.346710 1320.263794,355.740570 
	C1318.704834,347.556030 1316.926514,339.656128 1315.276245,331.729614 
	C1314.614868,328.552490 1314.234863,325.316772 1313.775391,321.764801 
	C1313.740479,320.971100 1313.656738,320.520325 1313.705322,319.614502 
	C1314.371460,305.423370 1314.905273,291.687317 1315.569336,277.626129 
	C1315.697998,276.837921 1315.696655,276.374817 1315.966309,275.701508 
	C1316.285645,274.608582 1316.333862,273.725861 1316.522095,272.546326 
	C1316.704224,271.816040 1316.746338,271.382568 1317.069092,270.716309 
	C1320.705444,260.307861 1324.061279,250.132217 1327.587646,239.683899 
	C1327.865845,238.998596 1327.973755,238.585999 1328.382446,238.047058 
	C1329.306885,236.600647 1329.930420,235.280594 1330.745605,233.697327 
	C1331.303223,232.649185 1331.669434,231.864243 1332.347412,230.981628 
	C1333.302979,229.576294 1333.946777,228.268616 1334.731689,226.747803 
	C1334.921753,226.371429 1334.970581,226.208191 1335.311279,225.971069 
	C1335.906616,225.250427 1336.210205,224.603668 1336.721313,223.673157 
	C1337.617920,221.925842 1338.307007,220.462265 1339.064819,218.834290 
	C1339.133667,218.669891 1339.170044,218.315323 1339.510498,218.220917 
	C1343.232178,214.078903 1346.613159,210.031311 1350.318359,205.916656 
	C1351.719116,204.546631 1352.795654,203.243668 1353.912964,201.946640 
	C1353.953735,201.952591 1353.941162,201.871201 1354.243164,201.836792 
	C1354.981812,201.196533 1355.418457,200.590698 1356.104248,199.755432 
	C1358.981201,197.072342 1361.608887,194.618683 1364.505127,192.044495 
	C1365.570801,191.058609 1366.367920,190.193222 1367.517822,189.265411 
	C1371.234497,187.011948 1374.598633,184.820877 1378.264404,182.665802 
	C1379.119141,182.169785 1379.671997,181.637802 1380.552124,180.990875 
	C1385.232056,178.744919 1389.584717,176.613907 1394.303955,174.562485 
	C1400.258423,172.516022 1405.846313,170.389954 1411.697510,168.279343 
	C1412.302368,168.215851 1412.643921,168.136932 1413.174805,168.230286 
	C1414.071289,168.044159 1414.778687,167.685745 1415.736816,167.346680 
	C1416.313477,167.291931 1416.639282,167.217834 1417.192383,167.315002 
	C1418.258179,167.253448 1419.096802,167.020645 1420.270508,166.824753 
	C1421.041748,166.766190 1421.477783,166.670731 1422.269287,166.672119 
	C1423.860474,166.258362 1425.096069,165.747726 1426.661621,165.264084 
	C1427.650391,165.240936 1428.309204,165.190781 1429.300293,165.381836 
	C1437.437378,165.582321 1445.242188,165.541595 1453.403564,165.624908 
	C1454.508057,165.731400 1455.255859,165.713867 1456.258057,165.983582 
	C1458.033203,166.310333 1459.554321,166.349823 1461.395508,166.521255 
	C1462.173706,166.673645 1462.631836,166.694077 1463.334473,166.998642 
	C1468.717407,168.505386 1473.855713,169.727982 1479.296021,171.136932 
	C1481.630371,171.931458 1483.662842,172.539612 1485.832520,173.423462 
	C1486.660034,173.919800 1487.350220,174.140457 1488.370972,174.544067 
	C1492.213501,176.467514 1495.725464,178.208038 1499.257080,180.133774 
	C1499.276855,180.319000 1499.564697,180.550751 1499.564697,180.550751 
	C1499.564697,180.550751 1499.920166,180.449615 1500.217773,180.667816 
	C1502.259521,181.722778 1504.003662,182.559525 1505.944336,183.667603 
	C1509.755127,186.638275 1513.369629,189.337631 1517.119873,192.339676 
	C1523.054565,198.800766 1528.853638,204.959152 1534.756592,211.439819 
	C1535.914917,213.172180 1536.969238,214.582245 1538.070312,216.257904 
	C1538.371094,216.768967 1538.625244,217.014435 1538.963379,217.508270 
	C1539.369873,218.167694 1539.692261,218.578720 1540.038574,219.343353 
	C1544.473389,228.478043 1548.884155,237.259140 1553.263672,246.407806 
	C1554.984863,252.499512 1556.737427,258.223663 1558.390381,264.226868 
	C1558.546387,264.996552 1558.802002,265.487244 1559.042236,266.321075 
	C1559.160645,267.098724 1559.294434,267.533234 1559.334595,268.354126 
	C1559.879395,271.474548 1560.517700,274.208557 1561.093384,277.376221 
	C1561.258545,279.522766 1561.486206,281.235657 1561.539307,283.272736 
	C1561.587891,284.725403 1561.810913,285.853882 1561.989746,287.421112 
	C1562.220459,291.901398 1562.495483,295.942932 1562.543457,300.318878 
	C1562.046387,306.096344 1561.776367,311.539398 1561.362305,317.353271 
	C1561.273560,318.507263 1561.328857,319.290436 1561.233521,320.463745 
	C1559.666504,321.557648 1558.272705,322.813599 1556.829956,322.872528 
	C1549.245605,323.182281 1541.648926,323.189484 1533.599731,323.158813 
	C1524.413696,323.114014 1515.684448,323.212158 1506.504028,323.187805 
	C1497.048828,323.118256 1488.044922,323.171204 1478.608887,323.114929 
	C1476.113525,323.091888 1474.050415,323.178040 1471.529541,323.163422 
	C1464.719604,323.122345 1458.367188,323.182068 1451.682251,323.134827 
	C1450.891968,323.082733 1450.434448,323.137604 1449.518066,323.097290 
	C1440.046875,323.088684 1431.034302,323.175323 1421.564697,323.139465 
	C1415.739258,323.114319 1410.370972,323.211670 1404.560303,323.188843 
	C1401.059204,323.140564 1398.000732,323.212433 1394.488892,323.175415 
	C1385.707886,323.142426 1377.380005,323.218353 1368.690674,323.342407 
	C1367.974365,324.102112 1367.207886,324.892151 1367.326294,325.513428 
	C1369.199951,335.337585 1371.187012,345.140106 1373.138428,355.322754 
	C1375.936768,364.974701 1380.080811,373.537109 1386.583862,381.160706 
	C1389.437866,384.233337 1392.281250,386.989288 1395.272705,390.011932 
	C1396.251465,390.870819 1397.081909,391.463013 1397.979492,392.361542 
	C1398.727051,392.997040 1399.407471,393.326202 1400.254517,393.796570 
	C1400.421143,393.937775 1400.818237,394.119354 1400.904541,394.418640 
	C1401.679688,395.075653 1402.368652,395.433380 1403.286255,395.999268 
	C1404.268066,396.522034 1405.021240,396.836578 1405.893921,397.460968 
	C1407.373169,398.378235 1408.732788,398.985657 1410.385132,399.741425 
	C1411.319214,400.021820 1411.960571,400.153931 1412.745850,400.569336 
	C1413.619263,401.126617 1414.348755,401.400543 1415.384155,401.798096 
	C1416.338623,402.034363 1416.987183,402.146942 1417.824341,402.562439 
	C1420.356079,403.416046 1422.699341,403.966827 1425.369507,404.638794 
	C1426.158691,404.764618 1426.620972,404.769318 1427.231445,405.028748 
	C1428.275146,405.255005 1429.170776,405.226562 1430.369507,405.256836 
	C1431.286499,405.287292 1431.900269,405.259064 1432.762207,405.552673 
	C1439.804199,405.682129 1446.597900,405.489777 1453.653442,405.325684 
	C1454.262817,405.312500 1454.610474,405.271057 1455.254150,405.425812 
	C1462.830444,403.170868 1470.110840,400.719696 1477.627563,398.193604 
	C1478.290039,397.868164 1478.716064,397.617645 1479.361572,397.371521 
	C1479.581299,397.375916 1479.977295,397.185455 1480.347412,397.162720 
	C1481.917847,396.477295 1483.118408,395.814575 1484.645508,395.102661 
	C1486.305176,394.289703 1487.638184,393.525879 1489.278320,392.769196 
	C1490.146362,392.226227 1490.707397,391.676178 1491.461182,391.085876 
	C1491.654175,391.045624 1491.976807,390.819305 1492.286011,390.818848 
	C1493.163086,390.259216 1493.730957,389.700043 1494.484375,389.115784 
	C1494.670044,389.090698 1494.983276,388.885010 1495.293701,388.865295 
	C1496.169434,388.277374 1496.734863,387.709137 1497.583496,386.998474 
	C1498.552368,386.365326 1499.238037,385.874634 1500.177124,385.379578 
	C1500.653564,384.926361 1500.876465,384.477448 1501.396851,383.966217 
	C1502.172852,383.298798 1502.651245,382.693695 1503.446777,382.005432 
	C1504.974487,380.667084 1506.185303,379.411804 1507.714233,378.079346 
	C1510.404175,375.737427 1512.776123,373.472748 1515.330200,371.033997 
	C1516.114502,371.477203 1516.995850,371.896912 1517.794434,372.438477 
	C1527.637207,379.113281 1537.402710,385.904510 1547.325684,392.457458 
	C1553.381592,396.456665 1553.690796,397.145721 1548.803955,402.776886 
	C1543.839478,408.497314 1538.677734,414.046509 1533.283936,419.774353 
	C1527.269531,423.842987 1521.573364,427.807983 1515.774048,431.662598 
	C1515.670776,431.552185 1515.420532,431.718353 1515.420532,431.718353 
	C1515.420532,431.718353 1515.508423,432.006500 1515.189453,432.198273 
	C1513.567261,433.099091 1512.264160,433.808105 1510.766968,434.469360 
	C1510.268433,434.544067 1510.163208,434.762787 1510.185547,435.084625 
	C1510.113647,435.091492 1510.112793,435.235840 1509.782227,435.217957 
	C1508.341309,435.813354 1507.231079,436.426697 1505.877686,437.082275 
	C1505.314697,437.249817 1505.069702,437.461731 1504.511719,437.798859 
	C1498.248657,440.117737 1492.373169,442.398041 1486.497803,444.678345 
M1468.047974,212.054749 
	C1456.070435,206.818298 1443.517578,207.321289 1431.005127,208.799973 
	C1426.420044,209.341843 1422.008301,211.350037 1416.799927,212.730576 
	C1413.140869,214.393814 1409.481689,216.057053 1405.134033,217.850204 
	C1401.397949,220.820267 1397.661743,223.790314 1393.282104,226.989227 
	C1389.426392,231.836792 1385.570679,236.684357 1381.122803,241.895737 
	C1374.566772,252.727463 1370.307739,264.304108 1369.437622,277.801147 
	C1369.480103,278.830719 1369.522583,279.860260 1369.404907,281.648773 
	C1370.896484,282.023804 1372.387451,282.724335 1373.879639,282.726532 
	C1417.486084,282.790710 1461.092529,282.785339 1504.699097,282.791046 
	C1506.623657,282.791290 1508.548096,282.791077 1511.309814,282.791077 
	C1510.739380,277.333099 1510.778320,272.622314 1509.663208,268.202698 
	C1507.900635,261.216766 1505.364380,254.426041 1503.199585,247.006668 
	C1503.083374,246.663025 1502.967285,246.319382 1502.912720,245.303696 
	C1502.328735,244.440353 1501.744751,243.576996 1501.037842,242.023483 
	C1495.526978,231.944687 1489.125000,222.721802 1477.431519,217.625900 
	C1474.442993,215.965424 1471.454346,214.304947 1468.047974,212.054749 
z"/>
<path fill="#C9A050" opacity="1.000000" stroke="none" 
	d="
M661.099243,468.950165 
	C659.872070,467.105865 658.644897,465.261536 657.061157,462.914093 
	C651.214355,453.586304 645.724182,444.761627 640.175720,435.568787 
	C637.827576,429.732574 635.537720,424.264557 633.259216,418.406891 
	C632.867126,414.480377 631.907043,413.089539 627.888916,415.095245 
	C620.149414,418.958466 612.060486,422.121796 603.684814,425.526367 
	C594.180908,427.360107 585.108643,429.242798 575.598145,431.070557 
	C569.393921,431.351532 563.631714,431.806335 557.860840,431.989502 
	C552.257812,432.167267 551.782104,431.410339 552.346558,425.648407 
	C552.891907,420.082611 553.244141,414.497925 553.803040,408.497589 
	C555.688354,399.399353 557.451843,390.725098 559.448853,381.776245 
	C562.041565,375.209778 564.457458,368.938202 566.725403,362.613586 
	C567.408813,360.707886 567.680908,358.654724 568.409851,356.704315 
	C568.835632,356.647949 568.992981,356.556335 569.484436,356.389954 
	C569.581604,355.426605 569.344788,354.538055 568.866821,353.539368 
	C568.449768,353.412933 568.273865,353.396637 567.916382,353.175720 
	C567.209473,352.865143 566.684082,352.759186 565.865112,352.440308 
	C560.080383,350.325317 554.589294,348.423248 548.844482,346.290466 
	C541.422180,342.271423 534.253723,338.483093 526.936829,334.441589 
	C525.945923,333.759033 525.103455,333.329681 524.064514,332.620819 
	C521.094666,330.455200 518.321289,328.569092 515.383423,326.380920 
	C510.836121,322.365784 506.524292,318.564178 502.044189,314.972412 
	C499.287231,312.762177 499.331879,310.863647 501.837585,308.535065 
	C504.353241,306.197235 506.681061,303.657288 509.413025,301.097229 
	C513.529175,298.065308 517.323547,295.142151 521.379517,292.131226 
	C522.174927,291.560852 522.708801,291.078308 523.559204,290.436798 
	C526.964111,288.300568 530.052429,286.323273 533.478821,284.267334 
	C535.552490,283.159912 537.288147,282.131134 539.381714,281.052551 
	C549.637268,276.845001 559.534973,272.687195 569.623840,268.449066 
	C566.403381,261.185364 563.014282,253.541336 559.604004,245.485962 
	C557.730164,236.381744 555.877441,227.688873 554.079712,218.560440 
	C553.634216,213.081009 553.133728,208.037125 552.725037,202.646362 
	C552.615234,201.165344 552.413696,200.031235 552.259888,198.508972 
	C552.241760,197.083298 552.175842,196.045792 552.173096,194.623001 
	C552.261536,193.199570 552.286743,192.161438 552.660461,190.937286 
	C560.705688,190.938568 568.402344,191.125885 576.420654,191.494141 
	C579.183716,192.002304 581.625122,192.329498 584.390259,192.787170 
	C591.123108,194.347672 597.532288,195.777710 604.200317,197.454041 
	C613.632385,201.367447 622.805725,205.034531 632.380737,208.862198 
	C636.860596,192.505951 644.272888,177.721695 654.010498,163.699951 
	C656.166260,160.612900 658.072998,157.774612 660.306641,154.854828 
	C663.449768,151.519226 666.378540,148.354279 669.047913,144.983856 
	C671.331177,142.100845 673.306763,142.417648 675.511292,144.954666 
	C679.191711,149.190048 682.923706,153.380600 686.694702,157.913513 
	C688.196777,160.143890 689.638062,162.050797 691.154053,164.272125 
	C692.367004,166.087769 693.505310,167.588943 694.731445,169.442383 
	C699.093079,177.815262 703.366882,185.835907 707.651062,194.193298 
	C708.856812,198.585571 709.871094,202.710709 711.383667,206.644302 
	C711.731384,207.548615 713.789795,207.795135 715.412720,208.238129 
	C724.881958,204.298508 733.999512,200.465149 743.530029,196.601303 
	C750.039551,195.144638 756.135986,193.718460 762.650085,192.345276 
	C765.739380,192.043915 768.410950,191.689545 771.533936,191.330276 
	C778.965088,191.218353 785.944824,191.111343 792.936157,191.464478 
	C792.943298,195.615723 792.938904,199.306839 792.759644,203.366058 
	C792.142273,208.470795 791.699768,213.207428 791.122559,218.335724 
	C789.209045,227.432159 787.430237,236.136902 785.467163,245.143463 
	C782.096741,253.386047 778.910522,261.326843 775.390198,270.100159 
	C780.727234,271.304047 785.523926,272.386047 790.466492,273.784607 
	C793.080505,275.374634 795.548584,276.648071 798.304932,278.133972 
	C807.660095,283.463379 816.726868,288.580322 825.896912,293.980469 
	C829.483154,296.726410 832.966248,299.189087 836.583984,301.937988 
	C839.045349,304.201813 841.371948,306.179413 843.846313,308.455444 
	C844.561340,310.142395 845.128662,311.530884 845.411255,313.073853 
	C840.366760,317.370270 835.607056,321.512268 830.523010,325.753784 
	C828.433350,327.169220 826.668030,328.485107 824.582886,329.928772 
	C815.487244,335.292084 806.711548,340.527618 797.567383,345.809143 
	C790.476013,348.375000 783.753052,350.894867 776.735107,353.307678 
	C776.117676,354.197968 775.255371,355.412323 775.555603,356.159424 
	C778.903687,364.488831 782.431274,372.746063 785.925598,381.406250 
	C787.413208,387.841187 788.885620,393.892609 790.258301,400.267456 
	C790.425110,401.398071 790.691772,402.205261 790.930420,403.400574 
	C791.255493,405.526123 791.608643,407.263550 791.905396,409.429474 
	C792.077759,411.550140 792.306458,413.242279 792.400757,415.203583 
	C792.467834,416.000061 792.669189,416.527374 792.833252,417.517731 
	C792.888306,421.119659 792.796570,424.277771 793.122070,427.392303 
	C793.482788,430.842834 792.338928,432.229034 788.756775,431.963409 
	C782.840698,431.524658 776.902344,431.386932 770.578003,431.003082 
	C761.149475,429.069519 752.116455,427.255188 742.819580,425.216858 
	C733.397888,421.273041 724.239990,417.553223 714.789673,413.749878 
	C714.302673,413.723663 714.108154,413.780975 713.622925,414.034058 
	C713.164062,415.132507 712.995789,416.035187 712.668335,417.265656 
	C709.939331,424.045288 707.369446,430.497131 704.533813,437.161682 
	C699.186157,445.921570 694.104309,454.468719 688.749878,463.153015 
	C687.953735,464.128815 687.430176,464.967407 686.609741,465.973419 
	C683.134399,469.945038 680.023621,473.808411 676.760437,477.538361 
	C672.732361,482.142517 672.434814,482.027405 668.656982,477.394318 
	C666.272339,474.469879 663.627441,471.757599 661.099243,468.950165 
M691.357788,321.395874 
	C691.742371,321.544098 692.126892,321.692322 693.049866,321.912201 
	C693.740112,322.474823 694.430298,323.037445 695.336975,324.264496 
	C695.745361,324.458313 696.153748,324.652100 697.176575,324.966919 
	C698.693115,326.024780 700.209595,327.082672 701.950378,328.781281 
	C706.185120,334.043365 710.419861,339.305481 714.661011,345.296844 
	C716.178650,346.816315 717.554749,349.451172 719.238098,349.664734 
	C727.081421,350.659882 735.009766,350.985809 743.751404,351.800781 
	C750.394592,351.148254 757.037781,350.495728 764.669434,349.746094 
	C756.631042,337.123260 747.536438,327.012299 736.701782,317.619019 
	C736.328796,317.457642 735.955811,317.296295 734.963318,316.892578 
	C733.979980,316.388916 732.996704,315.885223 731.776672,314.830200 
	C730.513672,315.129913 729.250610,315.429626 727.345581,316.007599 
	C726.424500,316.095459 725.503357,316.183289 723.910339,316.151367 
	C723.268433,316.601227 722.626587,317.051056 721.341248,317.769318 
	C720.880249,317.790344 720.419189,317.811401 719.584045,317.408203 
	C718.717041,317.727295 717.850037,318.046387 716.330383,318.671631 
	C715.877075,318.830719 715.423767,318.989807 714.080017,319.004517 
	C711.390625,318.860168 708.701172,318.715851 705.816223,317.963348 
	C704.524109,318.027283 703.231995,318.091248 701.087402,318.212769 
	C697.734680,317.783264 694.381958,317.353729 691.003845,316.474426 
	C691.003845,316.474426 690.898315,316.036102 691.467957,315.628662 
	C691.651550,314.724487 691.835205,313.820282 692.855835,312.909973 
	C694.229004,313.106140 695.602173,313.302277 697.118713,314.004211 
	C697.762512,313.956635 698.406372,313.909027 699.981323,313.839172 
	C707.653137,313.224915 715.324890,312.610657 723.654663,311.913086 
	C725.517822,308.849792 723.152771,309.317871 720.631531,309.276886 
	C710.314575,306.797333 700.188232,307.532227 689.509827,311.096497 
	C688.325684,312.689545 687.141541,314.282593 686.063232,316.545807 
	C687.036682,317.450378 688.010071,318.354950 689.118713,319.866974 
	C689.806152,320.187744 690.493591,320.508514 691.127136,320.916504 
	C691.127136,320.916504 691.098022,320.818176 691.357788,321.395874 
M661.128113,289.504242 
	C661.376038,289.744904 661.624023,289.985565 661.991943,290.770935 
	C662.350647,291.171112 662.709351,291.571289 663.082825,292.609680 
	C663.722473,293.406219 664.362061,294.202759 665.000000,295.000000 
	C665.000000,295.000000 665.000793,294.998077 665.064758,295.702332 
	C665.986206,297.098114 666.907654,298.493927 667.829102,299.889709 
	C668.225098,299.721832 668.621033,299.553925 669.017029,299.386047 
	C668.680237,297.922943 668.343445,296.459839 668.055786,294.251831 
	C667.927246,293.520203 667.798706,292.788544 667.837341,291.486328 
	C667.599243,290.978333 667.361145,290.470337 667.148926,289.075470 
	C666.961548,285.050140 666.774231,281.024811 667.187866,276.991455 
	C667.793945,276.993896 668.400085,276.996338 669.510376,277.002258 
	C669.678467,277.001495 669.846558,277.000702 670.116943,277.850311 
	C670.882446,283.656342 671.647949,289.462372 672.413452,295.268433 
	C672.849609,295.226685 673.285828,295.184967 673.722046,295.143219 
	C675.200012,285.831757 678.067810,276.586273 674.785278,266.447632 
	C674.145935,265.556183 674.809753,262.249390 671.383179,265.017822 
	C670.583923,265.009308 669.784729,265.000793 668.765076,264.547363 
	C668.560913,264.269135 668.292847,264.082886 667.962646,263.180176 
	C668.576233,261.121429 669.189819,259.062653 670.199402,256.816223 
	C669.977112,256.203308 669.754761,255.590378 669.161011,254.349792 
	C661.158691,240.576965 650.347107,229.546295 635.623962,219.629059 
	C635.016968,229.049683 634.503113,237.025162 633.850220,245.915817 
	C634.366516,251.284286 634.882874,256.652740 635.280151,262.511963 
	C635.450867,262.794769 635.621582,263.077545 635.753662,264.099976 
	C636.047546,267.874695 637.810120,270.422089 642.017517,271.626495 
	C642.344849,271.752716 642.672180,271.878906 643.433899,272.496246 
	C644.236572,272.848511 645.039246,273.200775 646.036926,274.156403 
	C650.286926,278.119995 654.536926,282.083588 658.949402,286.669464 
	C659.640320,287.436981 660.331177,288.204498 660.997559,288.998169 
	C660.997559,288.998169 661.030212,288.985046 661.128113,289.504242 
M659.861145,316.867950 
	C659.924805,315.987640 659.988464,315.107300 660.052185,314.227020 
	C658.695435,314.662872 657.338623,315.098694 655.484497,315.896759 
	C655.328918,316.030457 655.173401,316.164124 654.248535,316.270050 
	C652.182556,316.555634 650.116516,316.841248 647.653076,316.571381 
	C646.431458,316.928467 645.209839,317.285522 643.100525,317.895294 
	C639.410034,317.973358 635.719482,318.051422 631.354675,317.770355 
	C627.547974,316.627411 623.800415,315.135315 619.911621,314.477478 
	C617.714722,314.105835 614.576355,314.303162 613.080933,315.624084 
	C605.636780,322.199493 598.387451,329.031281 591.502563,336.189240 
	C587.969910,339.861938 585.342468,344.405243 581.415039,349.772552 
	C588.482300,350.294525 593.725159,350.681732 599.577148,351.521118 
	C602.073608,351.451874 604.570129,351.382629 607.981628,351.363098 
	C614.773682,350.472443 621.584351,349.695465 628.341431,348.590790 
	C629.620728,348.381653 630.687256,346.871735 632.426392,345.582733 
	C636.750366,339.459290 641.074280,333.335846 645.941467,326.914032 
	C647.472107,325.898132 649.002686,324.882233 651.137939,323.773438 
	C651.432129,323.284882 651.726257,322.796356 652.337769,322.010681 
	C652.337769,322.010681 652.758301,321.900787 653.435486,321.911621 
	C653.968384,321.308411 654.501282,320.705231 655.197571,319.581024 
	C655.555420,319.171051 655.913330,318.761078 656.906250,318.264160 
	C657.669067,317.848022 658.431885,317.431854 659.861145,316.867950 
M681.100708,327.990723 
	C681.100708,327.990723 681.175903,327.824921 681.038452,327.119720 
	C680.045654,325.729248 679.052856,324.338806 678.059998,322.948364 
	C677.573242,323.183105 677.086426,323.417877 676.599670,323.652649 
	C677.108643,326.432373 677.617676,329.212128 678.052551,332.812714 
	C678.097290,334.185333 678.141968,335.557953 677.694763,337.203094 
	C678.008728,337.807831 678.322754,338.412537 678.916931,339.837006 
	C679.176208,341.533722 679.435486,343.230469 679.348877,345.716675 
	C679.464294,346.835785 679.579712,347.954895 679.418579,349.848267 
	C679.395325,351.214355 679.372009,352.580414 679.081665,354.679932 
	C678.384277,357.119263 677.686890,359.558624 676.328247,362.090546 
	C676.267761,363.079803 676.207275,364.069061 676.205444,365.791779 
	C680.112244,371.588409 684.019104,377.385040 688.231323,383.763397 
	C694.960999,390.009552 701.690674,396.255707 708.420349,402.501862 
	C708.974976,402.171539 709.529602,401.841248 710.084229,401.510956 
	C710.886169,394.648895 711.688110,387.786804 712.755249,380.034546 
	C712.538818,372.501007 712.487244,364.955719 711.953796,357.444702 
	C711.858032,356.094910 709.775024,354.886261 708.276550,353.005981 
	C705.861511,351.306763 703.446411,349.607544 700.905273,347.252472 
	C700.190002,346.868835 699.474731,346.485199 698.114502,345.948792 
	C695.139282,343.270355 692.164124,340.591949 688.884888,337.306610 
	C687.187256,335.232635 685.489624,333.158630 683.812317,330.417603 
	C682.928711,329.553619 682.045105,328.689636 681.100708,327.990723 
M772.941406,258.169037 
	C773.223511,257.425446 773.505676,256.681854 774.097961,255.265045 
	C775.186523,251.873566 776.275024,248.482071 777.819824,244.524246 
	C779.544373,237.682327 781.268921,230.840408 783.504761,223.449432 
	C783.798523,220.928528 784.092285,218.407639 784.658997,215.108307 
	C784.778625,213.737305 784.898315,212.366302 785.494263,210.514435 
	C785.462891,209.641327 785.431519,208.768234 785.655640,207.056686 
	C785.779785,204.703369 785.903992,202.350067 786.410767,199.616013 
	C785.982605,199.006134 785.554443,198.396255 784.358765,197.685394 
	C783.586121,197.713348 782.813416,197.741302 781.458557,197.357925 
	C779.648438,197.605057 777.838318,197.852188 775.205322,198.030807 
	C773.847107,198.190826 772.488831,198.350830 770.483154,198.268616 
	C769.654541,198.509445 768.825867,198.750290 767.198303,198.940735 
	C766.145447,199.082687 765.092590,199.224640 763.332886,199.185532 
	C762.232483,199.486160 761.132141,199.786789 759.270752,200.035446 
	C758.532043,200.198639 757.793396,200.361816 756.497131,200.319366 
	C756.010010,200.581360 755.522888,200.843353 754.352722,201.083862 
	C753.916809,201.207138 753.480835,201.330429 752.301514,201.302856 
	C749.358521,202.443588 746.415588,203.584320 743.239990,204.654938 
	C743.239990,204.654938 743.039185,204.791519 742.252686,204.797119 
	C734.041016,208.225586 725.826782,211.647842 717.619385,215.086411 
	C715.252686,216.077942 714.143860,217.578445 715.712219,220.916046 
	C716.772095,228.938217 717.831970,236.960388 718.762268,245.889511 
	C718.301086,252.558090 717.839905,259.226654 717.392639,265.694519 
	C726.049377,265.089386 734.516907,264.497467 743.631775,264.095154 
	C744.079956,264.085693 744.528198,264.076233 745.530396,264.513580 
	C746.701721,264.476318 747.873047,264.439026 749.867676,264.686829 
	C751.906799,264.806702 753.945923,264.926544 756.390320,265.471344 
	C756.944336,265.463379 757.498291,265.455383 758.841492,265.758789 
	C768.800537,267.401154 768.800537,267.401154 771.632568,260.741028 
	C771.891418,259.996552 772.150330,259.252075 772.941406,258.169037 
M658.442261,323.837189 
	C650.624695,328.639618 644.568787,335.009369 640.762878,343.388275 
	C648.795898,338.583435 655.124695,332.185547 659.916870,323.858185 
	C660.029602,323.380310 660.142395,322.902435 660.255127,322.424591 
	C659.870789,322.788910 659.486450,323.153229 658.442261,323.837189 
M770.193115,360.838959 
	C769.186829,356.773895 766.874878,355.241272 762.712952,356.695496 
	C760.894958,357.330719 758.910095,357.488464 756.119751,357.783478 
	C751.741882,358.179138 747.364014,358.574799 742.078369,358.821625 
	C734.445923,358.251923 726.813538,357.682190 719.394592,357.128387 
	C719.394592,365.356812 719.394592,373.210693 719.132751,381.932800 
	C718.218750,388.804962 717.530396,395.718384 716.284058,402.529755 
	C715.756165,405.415100 716.424927,406.962036 718.962097,407.977814 
	C720.637451,408.648621 722.309814,409.327118 724.378784,410.577271 
	C730.520813,412.851227 736.662781,415.125153 743.401794,417.840424 
	C752.239014,419.695648 761.076172,421.550873 770.565796,423.829712 
	C775.541748,424.338379 780.517700,424.847076 786.543396,425.463074 
	C785.886475,419.250031 785.342590,414.105713 784.855957,408.172241 
	C782.692139,399.053345 780.528259,389.934479 778.285156,380.041260 
	C775.979858,374.831177 773.674561,369.621063 771.419312,363.920593 
	C771.388794,363.584900 771.276184,363.279480 770.986938,362.422485 
	C770.729492,362.130981 770.472046,361.839508 770.193115,360.838959 
M707.132080,345.212433 
	C707.202881,345.259338 707.273621,345.306244 707.344421,345.353149 
	C707.217834,345.243134 707.091248,345.133087 707.024841,344.288971 
	C702.298035,334.789185 694.666321,328.343384 685.512024,323.494171 
	C690.660767,332.713135 697.313904,340.391968 707.132080,345.212433 
M665.987061,339.206482 
	C666.241699,336.826447 666.496277,334.446442 667.023071,331.287415 
	C667.368164,328.388458 667.713318,325.489471 668.058472,322.590515 
	C667.500977,322.421356 666.943481,322.252228 666.386047,322.083069 
	C663.844055,326.014587 661.302124,329.946106 658.215149,334.249695 
	C654.005981,338.455170 649.902466,342.774200 645.549194,346.824799 
	C642.805908,349.377411 639.688904,351.528381 636.177490,354.371338 
	C635.377319,361.560394 634.577209,368.749481 633.362427,376.576050 
	C633.957031,384.790833 633.440186,393.168640 636.580200,401.850739 
	C638.521851,400.421234 639.923767,399.597595 641.073181,398.507690 
	C646.815552,393.062897 652.491638,387.548248 658.805786,381.915405 
	C659.189758,381.242798 659.573730,380.570190 660.159424,379.311646 
	C660.505615,378.568970 660.851807,377.826294 661.786560,376.791901 
	C663.811096,374.175751 665.835632,371.559601 668.473267,368.928741 
	C668.637939,368.281342 668.802612,367.633942 668.928406,366.322357 
	C668.955627,365.880402 668.982849,365.438446 669.454590,364.690796 
	C669.070984,364.121277 668.687317,363.551758 668.015198,362.280731 
	C667.107300,359.484161 666.199463,356.687592 665.261963,352.987488 
	C665.375122,349.675781 665.488281,346.364075 666.178162,343.048065 
	C667.288696,343.705994 668.399292,344.363922 669.727783,345.889008 
	C670.842407,350.267548 671.957031,354.646118 673.657471,358.945068 
	C673.732117,358.281219 673.806763,357.617340 673.918823,356.113708 
	C675.804993,346.280151 675.247559,336.575348 671.693237,326.872070 
	C670.998230,331.238007 670.303223,335.603973 669.090149,340.048370 
	C668.084351,340.035248 667.078552,340.022125 665.987061,339.206482 
M644.864441,313.263855 
	C648.212280,312.838684 651.560059,312.413483 656.140320,311.831787 
	C648.809143,306.617950 630.854431,306.623566 624.065247,311.443756 
	C624.705994,311.639526 625.346741,311.835266 626.809143,312.080444 
	C630.202881,312.571014 633.596558,313.061615 637.263062,314.171875 
	C639.511719,313.961914 641.760315,313.751953 644.864441,313.263855 
M688.794861,307.078979 
	C698.412170,304.489288 708.147522,303.221863 718.886536,304.719177 
	C720.251282,304.842407 721.616089,304.965637 723.362793,305.543396 
	C723.935059,305.591949 724.507324,305.640533 725.759705,306.108429 
	C732.243896,309.423340 736.091614,304.990479 740.766541,300.955933 
	C742.167297,299.635406 743.568054,298.314880 745.563477,296.689392 
	C752.963928,290.107880 758.884827,282.371155 764.331970,274.264496 
	C764.088867,273.595581 763.845703,272.926666 763.602600,272.257751 
	C750.753357,271.935333 737.904114,271.612946 724.301086,271.159760 
	C721.174805,272.245453 718.048584,273.331116 714.192078,274.638519 
	C708.132141,282.434937 702.072266,290.231323 695.359497,298.230042 
	C692.164124,300.818146 688.968750,303.406281 685.178040,306.112610 
	C685.285278,306.960419 685.392578,307.808228 685.499878,308.656067 
	C686.338684,308.211029 687.177490,307.766022 688.794861,307.078979 
M639.275269,407.989685 
	C638.890076,408.670837 638.504822,409.351990 638.053162,410.778137 
	C639.145142,413.857605 640.237183,416.937042 641.298279,420.490692 
	C641.393066,420.817230 641.593933,421.053772 641.969910,421.915863 
	C643.996338,426.605957 646.022827,431.296021 648.202820,436.666321 
	C651.390869,441.808899 654.578857,446.951477 657.935608,452.774323 
	C660.590088,456.203796 663.244507,459.633270 666.137695,463.696686 
	C668.294189,466.256348 670.450684,468.816010 673.117004,471.980865 
	C675.767517,468.378784 677.785156,465.636780 680.353394,462.502686 
	C683.009644,458.510742 685.665955,454.518829 688.919678,450.181366 
	C691.656616,445.470673 694.393555,440.760010 697.536621,435.478699 
	C700.778320,427.344177 704.020081,419.209686 707.662903,410.651733 
	C707.161194,409.990692 706.659485,409.329651 705.800476,408.165161 
	C704.920410,407.662842 704.040344,407.160522 702.823364,406.089874 
	C697.946350,401.937744 693.069275,397.785583 687.878479,393.060150 
	C684.224976,388.717834 680.571472,384.375549 676.796021,379.343048 
	C675.508179,377.428375 674.220276,375.513702 672.401367,372.809540 
	C670.563049,375.922638 669.340027,377.993835 667.572449,380.461182 
	C664.747314,384.044525 661.922180,387.627869 658.462952,391.387970 
	C652.278381,396.897614 646.093750,402.407257 640.013367,407.954285 
	C640.013367,407.954285 639.919922,407.893463 639.275269,407.989685 
M683.335754,293.678955 
	C683.509460,293.291534 683.683167,292.904114 683.949463,291.860504 
	C690.008301,285.638611 696.067078,279.416748 702.832703,273.091187 
	C705.129517,270.906799 708.852112,269.050537 709.445129,266.473999 
	C710.979187,259.808838 711.132935,252.825943 712.013306,245.093552 
	C711.767273,237.107178 710.961182,229.220474 708.274597,220.862732 
	C699.697449,226.773422 692.276550,232.627075 686.230713,241.025177 
	C683.818115,244.015884 681.405457,247.006577 678.282288,250.120056 
	C677.921936,250.914017 677.561584,251.707977 677.150146,253.265015 
	C677.040771,254.532593 676.931396,255.800171 676.394897,257.495392 
	C677.116760,259.002716 677.838623,260.510040 678.881714,262.795319 
	C679.504517,265.537384 680.127258,268.279449 680.470764,271.922577 
	C679.431885,280.567200 678.393005,289.211853 676.780640,298.173645 
	C676.937195,298.942230 677.093750,299.710785 677.250305,300.479401 
	C677.834229,300.025482 678.418091,299.571594 679.401978,298.611786 
	C680.509827,297.045776 681.617737,295.479736 683.335754,293.678955 
M562.252319,226.481216 
	C562.470703,226.994568 562.689087,227.507904 562.901306,228.819992 
	C564.470520,234.269012 566.039734,239.718033 567.680420,245.929031 
	C570.385803,251.985001 573.091187,258.040955 575.962402,264.837036 
	C577.435608,265.474609 578.969849,266.770599 580.372009,266.640717 
	C588.255859,265.910522 596.107849,264.837036 604.893921,264.050446 
	C612.762451,264.549988 620.631042,265.049500 628.697510,265.561584 
	C628.098877,258.691315 627.501404,251.834274 627.072571,244.069366 
	C627.953552,235.382416 628.834473,226.695465 630.005188,217.463928 
	C629.597656,216.804153 629.342468,215.786453 628.759705,215.538544 
	C620.651184,212.089050 612.497803,208.744949 603.893433,204.958267 
	C602.929321,204.635254 601.965271,204.312241 600.663391,203.495880 
	C600.092346,203.420029 599.521362,203.344193 598.234924,202.955704 
	C591.830994,201.599899 585.427063,200.244095 578.388184,198.386688 
	C572.079651,197.883209 565.771057,197.379715 558.394592,196.791000 
	C559.505798,205.058075 560.447571,212.064667 561.263245,219.695801 
	C561.367188,220.103302 561.471069,220.510818 561.310242,221.459442 
	C561.534668,221.973022 561.759033,222.486618 561.962830,223.750198 
	C562.131348,224.476517 562.299927,225.202835 562.252319,226.481216 
M798.811340,337.135284 
	C803.904968,334.166290 808.998596,331.197266 814.780334,328.038025 
	C818.517578,325.355713 822.254883,322.673370 826.653442,319.806702 
	C830.011963,317.247894 833.370422,314.689117 837.742310,311.358215 
	C833.137756,308.030029 829.585205,305.462219 825.555603,302.447510 
	C823.382385,300.938751 821.209106,299.429993 818.732910,297.320496 
	C810.810242,292.948883 802.887573,288.577301 794.389648,283.756500 
	C788.973572,281.731445 783.557434,279.706421 777.572266,277.227509 
	C771.360046,275.221924 771.360046,275.221924 767.750732,281.977173 
	C763.477051,287.248230 759.203369,292.519257 754.377808,298.069885 
	C753.557983,298.957214 752.738220,299.844513 751.265198,300.953827 
	C748.553711,303.470673 745.842224,305.987488 742.481201,308.607666 
	C741.395203,309.488464 740.309204,310.369263 738.781555,311.608276 
	C740.512024,313.062927 741.732849,314.089172 743.296875,315.675934 
	C745.839905,317.793274 748.382874,319.910614 751.204041,322.607605 
	C752.473083,323.726807 753.742188,324.845978 755.153748,326.441498 
	C755.335999,326.738190 755.593750,326.937195 756.182800,327.663208 
	C760.044434,332.622314 764.087341,337.452789 767.721130,342.573547 
	C772.122375,348.775726 773.837646,349.153137 781.306091,344.396423 
	C786.901855,342.006775 792.497681,339.617126 798.811340,337.135284 
M549.476440,338.533051 
	C555.985657,341.062439 562.602417,343.352051 568.965881,346.206390 
	C573.129028,348.073822 575.505127,347.009735 577.697510,342.763641 
	C581.839722,337.528503 585.981934,332.293396 590.720642,326.772736 
	C596.263123,321.853760 601.805603,316.934784 607.870056,311.904541 
	C607.656982,311.246460 607.443848,310.588379 606.572998,309.718567 
	C602.337036,306.498657 598.101135,303.278778 593.638245,299.440765 
	C588.208496,293.433350 582.778809,287.425934 577.269287,280.710175 
	C576.097351,277.572296 574.642944,274.599854 570.501404,276.141571 
	C563.229919,278.848419 556.040344,281.775391 548.106445,284.799561 
	C539.670105,289.833496 531.233765,294.867432 522.386292,300.009735 
	C522.119385,300.136230 521.919067,300.331146 521.120544,300.806519 
	C517.624023,303.552338 514.140625,306.315094 510.625885,309.037354 
	C508.617279,310.593018 508.310699,312.240906 510.439362,313.835938 
	C513.854736,316.395050 517.359192,318.835144 521.106018,321.920563 
	C524.302795,324.007172 527.499573,326.093781 531.097046,328.754669 
	C537.062561,331.843689 543.028076,334.932739 549.476440,338.533051 
M660.587402,306.947571 
	C660.921509,306.655579 661.255615,306.363586 661.589783,306.071625 
	C661.146851,305.709991 660.703857,305.348389 659.741638,304.524780 
	C654.074890,299.744751 648.062927,295.308350 642.852905,290.073761 
	C638.835571,286.037537 635.825134,280.999146 632.291931,275.660217 
	C629.285950,274.718353 626.279907,273.776489 623.021667,272.176544 
	C621.997009,271.896423 620.972351,271.616302 619.043457,271.104828 
	C612.379883,271.130371 605.716370,271.155914 598.189697,270.994598 
	C592.752930,271.699677 587.316223,272.404785 580.728760,273.259094 
	C587.563904,284.030518 594.868774,292.359985 604.131165,299.585632 
	C604.343872,299.830780 604.610352,299.979828 605.210999,300.618073 
	C606.471558,301.752563 607.732117,302.887024 609.104065,304.713287 
	C609.861755,305.090210 610.619507,305.467133 611.715515,305.865723 
	C611.715515,305.865723 611.994995,306.057587 612.085815,306.699493 
	C613.393799,307.125214 614.701721,307.550934 616.751099,307.842743 
	C625.525146,304.503906 634.410583,301.867432 644.117554,304.009216 
	C644.749390,303.995789 645.381226,303.982361 646.805969,303.960236 
	C651.204773,304.973480 655.603638,305.986725 660.587402,306.947571 
M646.074768,191.300293 
	C643.747559,197.352768 641.201660,203.335846 639.243652,209.505508 
	C638.740967,211.089462 639.498718,213.914459 640.718933,215.024506 
	C643.068420,217.161896 646.161499,218.482010 649.218994,220.749481 
	C652.444153,223.901428 655.669373,227.053391 659.209045,230.783142 
	C663.796448,236.122543 668.383850,241.461929 673.019775,246.857819 
	C678.148621,240.557037 683.147095,234.416367 688.749451,227.960129 
	C691.933228,225.021667 695.117004,222.083206 698.953674,218.970261 
	C700.575012,217.834259 702.537354,216.969849 703.720520,215.484787 
	C704.872070,214.039276 706.229980,211.621841 705.758301,210.213623 
	C703.566223,203.669342 700.770264,197.327301 698.098083,190.195068 
	C694.843384,184.599731 691.588623,179.004410 688.262268,172.738281 
	C686.032654,169.711273 683.803040,166.684250 681.378418,162.982239 
	C679.206604,159.908875 677.024902,156.842422 674.866089,153.759979 
	C673.125977,151.275284 671.423706,151.645248 669.827087,153.855026 
	C667.433960,157.167175 665.102295,160.523758 662.212402,164.249496 
	C660.783875,166.489868 659.355408,168.730240 657.311279,171.249863 
	C653.714905,177.755508 650.118530,184.261154 646.074768,191.300293 
M608.132751,358.209961 
	C606.059753,358.323303 603.986694,358.436646 601.069336,358.306671 
	C598.711792,358.206940 596.354309,358.107208 593.533630,357.518646 
	C592.662354,357.549133 591.791138,357.579620 590.108704,357.317444 
	C586.750183,356.840057 583.391663,356.362671 579.638428,355.499420 
	C578.989929,355.944305 578.341431,356.389191 577.304810,357.190094 
	C577.147522,357.682922 576.990173,358.175781 576.404907,359.003693 
	C576.291809,359.337677 576.178772,359.671661 575.802002,360.450989 
	C575.753479,360.789276 575.705017,361.127563 575.051819,361.826294 
	C572.364380,368.216919 569.676880,374.607544 566.608704,381.674286 
	C564.713501,390.444916 562.818298,399.215546 560.414551,408.588928 
	C559.947937,413.041870 559.260742,417.489807 559.158936,421.951080 
	C559.131042,423.172699 560.914307,425.537994 561.771057,425.494629 
	C566.547974,425.252777 571.295532,424.432007 576.775635,423.936584 
	C577.492859,423.817535 578.210022,423.698517 579.569885,423.807617 
	C580.382751,423.550598 581.195679,423.293549 582.832520,423.054535 
	C589.931335,421.127686 597.030151,419.200836 604.883972,417.224609 
	C610.303101,414.936951 615.722290,412.649261 621.864441,410.201660 
	C625.039429,408.171417 630.464111,408.435791 629.398376,402.195618 
	C628.259216,395.525330 627.485168,388.792664 626.807373,381.184082 
	C626.782349,377.786346 626.757324,374.388641 626.968323,370.193298 
	C627.126709,367.800964 627.285095,365.408630 627.752869,362.260010 
	C627.855835,361.177643 627.958862,360.095245 628.532288,358.465790 
	C627.659790,357.624237 626.702576,355.999512 625.930115,356.083008 
	C623.245178,356.373352 620.624207,357.256165 617.076782,357.849030 
	C614.382019,358.049988 611.687195,358.250946 608.132751,358.209961 
M693.068604,293.598114 
	C696.818115,289.419098 700.567627,285.240051 704.317139,281.061035 
	C696.690796,282.765869 686.369873,293.634827 686.152527,298.844025 
	C688.411926,297.169922 690.488281,295.631470 693.068604,293.598114 
M644.949768,285.438202 
	C649.095337,288.615204 651.519836,294.028961 657.668701,295.954895 
	C655.325562,288.469147 646.846741,280.428009 641.952881,280.657593 
	C642.832031,282.149628 643.645691,283.530365 644.949768,285.438202 
z"/>
<path fill="#C59D4B" opacity="1.000000" stroke="none" 
	d="
M141.623474,436.929352 
	C141.433899,441.011780 139.517960,442.321899 135.280502,442.216522 
	C121.189743,441.866119 107.086571,442.014587 92.525696,441.953247 
	C91.991852,429.287567 91.864487,416.640503 91.858315,403.993378 
	C91.822044,329.582977 91.875351,255.172424 91.665794,180.762573 
	C91.650986,175.504242 93.173798,174.379700 98.113274,174.519897 
	C110.921341,174.883438 123.747177,174.768311 136.563080,174.611755 
	C140.056091,174.569092 141.333374,175.679565 141.111679,179.180786 
	C140.880920,182.825058 141.115875,186.498840 141.162262,191.065887 
	C141.250839,200.627853 141.324341,209.283615 141.271729,218.399139 
	C141.238510,227.589020 141.331421,236.319153 141.307999,245.501892 
	C141.307236,254.942429 141.422821,263.930359 141.380280,273.372498 
	C141.297028,282.573944 141.371902,291.321259 141.334106,300.519043 
	C141.306122,309.623718 141.390839,318.277924 141.330139,327.387268 
	C141.274094,336.584503 141.363480,345.326538 141.336029,354.518066 
	C141.324341,363.629211 141.429504,372.290833 141.393799,381.403168 
	C141.369415,390.598328 141.485901,399.342743 141.460205,408.527649 
	C141.419846,418.288544 141.521667,427.608948 141.623474,436.929352 
z"/>
<path fill="#C59C4C" opacity="1.000000" stroke="none" 
	d="
M1665.930176,446.631927 
	C1665.486328,446.503815 1665.042603,446.375671 1664.066650,445.996521 
	C1661.680908,445.451294 1659.827148,445.157135 1657.973389,444.862976 
	C1657.665649,444.730713 1657.344849,444.652557 1656.595459,444.378326 
	C1655.433960,443.940582 1654.687500,443.753052 1653.941162,443.565552 
	C1652.121948,443.130737 1650.302856,442.695892 1648.101562,442.321289 
	C1647.719360,442.381561 1647.461182,442.494904 1647.477051,442.269989 
	C1646.677246,441.642303 1645.861572,441.239563 1645.045898,440.836792 
	C1641.287598,438.857727 1637.529297,436.878662 1633.133301,434.677185 
	C1628.660156,432.302429 1624.824585,430.150116 1620.964722,427.683105 
	C1620.257812,426.992889 1619.575317,426.617371 1618.892700,426.241882 
	C1618.892700,426.241852 1618.892944,426.112579 1618.755127,425.812866 
	C1617.730957,425.046631 1616.844604,424.580109 1615.958252,424.113586 
	C1615.230225,423.423248 1614.502319,422.732880 1613.357910,421.675598 
	C1611.958618,420.546112 1610.975830,419.783508 1609.992920,419.020935 
	C1607.824707,416.469482 1605.656372,413.918030 1603.159058,410.893372 
	C1602.253906,409.874542 1601.677734,409.328979 1601.101562,408.783417 
	C1601.101562,408.783417 1600.997803,408.376984 1600.884277,407.903412 
	C1600.202637,406.916748 1599.634521,406.403656 1599.066406,405.890503 
	C1598.392212,404.795502 1597.718018,403.700562 1596.885742,401.931396 
	C1596.698364,400.142548 1596.669067,399.027954 1596.639648,397.913391 
	C1599.232422,396.000214 1601.825195,394.087006 1604.976440,391.962830 
	C1606.044312,391.183960 1606.553711,390.616058 1607.063110,390.048157 
	C1607.915039,389.491058 1608.766968,388.933929 1610.108154,388.114349 
	C1611.441040,386.925873 1612.284302,385.999878 1613.127686,385.073883 
	C1613.579834,384.747528 1614.031982,384.421143 1615.017578,383.936584 
	C1616.041260,383.192291 1616.531494,382.606110 1617.021851,382.019958 
	C1618.211304,381.146912 1619.400757,380.273834 1621.081177,379.122864 
	C1622.082886,378.253510 1622.593506,377.662048 1623.104126,377.070557 
	C1624.596558,375.788452 1626.088867,374.506378 1628.099854,372.985840 
	C1629.120605,372.710938 1629.622803,372.674469 1630.125000,372.638031 
	C1630.397339,372.943115 1630.669678,373.248230 1631.138794,374.001099 
	C1631.886719,374.967865 1632.437988,375.486847 1632.989258,376.005829 
	C1634.516235,377.871582 1636.043335,379.737366 1637.951416,382.081726 
	C1640.837646,384.785126 1643.342773,387.009918 1645.848022,389.234711 
	C1648.941895,391.452637 1652.035767,393.670532 1655.553589,396.323059 
	C1656.679443,397.049988 1657.381348,397.342224 1658.083252,397.634491 
	C1659.082886,398.102234 1660.082397,398.569977 1661.562256,399.414734 
	C1664.387573,400.759399 1666.732666,401.727020 1669.077759,402.694641 
	C1670.011719,402.892212 1670.945801,403.089783 1672.457764,403.583069 
	C1678.367065,405.038910 1683.698242,406.199036 1689.364258,407.499146 
	C1690.177734,407.633636 1690.656616,407.628082 1691.363281,407.929657 
	C1693.403320,408.321472 1695.215698,408.406219 1697.402588,408.622009 
	C1698.564209,408.719177 1699.351440,408.685333 1700.405640,408.948120 
	C1705.236328,408.916504 1709.800049,408.588287 1714.363647,408.260040 
	C1715.017944,408.260620 1715.672241,408.261200 1716.914551,408.418610 
	C1719.130615,408.144531 1720.758667,407.713623 1722.386841,407.282715 
	C1722.740723,407.294159 1723.094604,407.305603 1723.999512,407.454041 
	C1731.683350,406.595337 1738.702515,405.300140 1744.579346,400.053497 
	C1751.814209,395.719269 1756.669189,389.828888 1759.104736,382.028259 
	C1759.104736,382.028259 1759.279297,381.737396 1759.575684,381.346008 
	C1762.452271,373.094574 1763.775757,365.265015 1759.304443,357.576172 
	C1758.877930,356.410950 1758.451416,355.245758 1757.671265,353.568939 
	C1753.518188,349.044617 1749.718628,345.031921 1745.875000,340.790588 
	C1745.648682,340.224426 1745.382690,340.134094 1744.705566,340.146332 
	C1740.249756,338.055634 1736.121094,336.109497 1732.023193,333.802551 
	C1735.837646,328.974060 1729.143799,326.124634 1730.365601,322.052612 
	C1731.457397,323.163574 1732.549194,324.274506 1733.640991,325.385468 
	C1735.104370,322.176849 1736.567749,318.968201 1738.241577,315.297943 
	C1733.579224,311.932159 1734.051880,309.474182 1739.181885,308.056915 
	C1738.331055,306.225281 1737.662231,304.785492 1736.912720,303.171661 
	C1738.203369,301.956909 1739.505981,300.938568 1740.552612,299.703461 
	C1742.856445,296.984680 1741.295532,294.755920 1738.887085,293.716797 
	C1735.774048,292.373657 1732.338013,291.708374 1728.988281,291.001617 
	C1724.313354,290.015198 1719.575562,289.330597 1714.889771,288.390991 
	C1706.458984,286.700409 1698.046875,284.916290 1688.910278,283.022705 
	C1691.519043,288.106018 1694.469116,291.015045 1699.278809,292.091003 
	C1701.420654,292.570160 1703.300659,294.220825 1705.299438,295.339722 
	C1705.014771,296.222321 1704.730103,297.104889 1704.445435,297.987457 
	C1699.078369,297.396057 1693.711182,296.804626 1688.392456,296.218536 
	C1687.700684,302.900330 1687.692993,302.886688 1681.601440,306.317535 
	C1680.895752,306.714996 1680.265381,307.306000 1679.716553,307.912567 
	C1675.247681,312.851105 1672.588257,313.072357 1666.742188,310.356018 
	C1663.606079,308.898895 1659.906128,308.654724 1655.477051,307.637177 
	C1657.136108,311.125854 1658.066162,313.081543 1658.996216,315.037231 
	C1655.900146,313.721497 1652.803955,312.405762 1649.331665,310.789795 
	C1648.822998,310.191559 1648.740601,309.880249 1648.925537,309.204834 
	C1652.477173,305.709351 1655.811523,302.564758 1660.254150,298.374786 
	C1649.947876,299.038788 1654.655762,292.137177 1653.710815,288.330078 
	C1647.150513,289.392548 1646.448486,290.654205 1649.372559,295.689392 
	C1646.892212,296.001801 1644.496338,296.303558 1642.100342,296.605347 
	C1642.303955,296.200836 1642.507690,295.796326 1642.711304,295.391785 
	C1639.614136,293.135925 1636.516968,290.880066 1633.142212,288.422119 
	C1634.018555,286.852478 1635.069946,284.968994 1636.140991,283.050385 
	C1634.240112,282.434875 1632.836792,281.980530 1631.433594,281.526184 
	C1632.508911,280.544098 1633.580078,279.557220 1634.661133,278.581451 
	C1635.400146,277.914398 1636.091187,277.170227 1636.910889,276.620636 
	C1640.947388,273.914398 1644.360107,270.184448 1650.116577,270.884033 
	C1654.808960,271.454285 1659.625854,271.000000 1663.866577,271.000000 
	C1664.454224,268.815552 1664.843384,267.368530 1665.485596,266.038483 
	C1666.401733,266.470123 1667.064941,266.784729 1667.848145,267.390076 
	C1668.644409,268.074768 1669.320435,268.468719 1670.129395,268.980072 
	C1670.262451,269.097443 1670.614990,269.138824 1670.772461,269.448669 
	C1672.284790,270.508423 1673.639404,271.258362 1675.258057,272.106750 
	C1675.701782,272.259308 1675.881714,272.313385 1676.167358,272.510254 
	C1676.444702,272.823090 1676.644775,272.947357 1677.168945,273.109283 
	C1677.663208,273.242645 1677.861938,273.292572 1678.171387,273.492920 
	C1678.464722,273.821198 1678.678467,273.945496 1679.257324,274.077240 
	C1680.042358,274.158295 1680.493652,274.178406 1681.163086,274.454376 
	C1682.530151,275.351776 1683.609253,276.220886 1684.839233,276.598938 
	C1694.769287,279.651276 1704.716675,282.650085 1714.695679,285.537537 
	C1715.658569,285.816162 1716.871826,285.229248 1718.306030,285.132294 
	C1721.086426,285.971313 1723.529541,286.722198 1726.088867,287.785278 
	C1727.020508,288.282166 1727.835815,288.466797 1728.918945,288.562927 
	C1729.740479,288.546875 1730.294434,288.619354 1730.974854,288.952942 
	C1731.714233,289.204041 1732.327026,289.194031 1733.334229,289.154785 
	C1734.477661,289.344055 1735.226807,289.562561 1736.114868,290.036377 
	C1736.998047,290.451843 1737.742432,290.612000 1738.870361,290.738586 
	C1741.873291,291.515015 1744.480713,292.366272 1747.114746,293.125549 
	C1751.098755,294.273895 1755.101196,295.358185 1759.390381,296.636047 
	C1760.346924,296.928558 1761.009033,297.054657 1761.838623,297.486572 
	C1763.283569,298.289154 1764.560791,298.785919 1766.036255,299.529083 
	C1767.044067,299.945496 1767.853760,300.115540 1768.823120,300.585754 
	C1774.674927,304.193817 1780.366943,307.501678 1786.259399,311.002716 
	C1786.750488,311.426422 1787.041260,311.656952 1787.389648,312.188477 
	C1788.311157,312.967468 1789.174805,313.445435 1790.217896,314.204590 
	C1793.190796,317.370667 1795.984253,320.255646 1798.865479,323.443604 
	C1799.580933,324.252777 1800.208740,324.759003 1800.949219,325.509583 
	C1801.414673,326.148224 1801.767456,326.542480 1802.129395,327.292206 
	C1803.744385,330.729645 1805.601807,333.710297 1806.893921,336.918671 
	C1808.600708,341.156067 1809.864380,345.571960 1811.279907,350.276459 
	C1811.494629,352.094543 1811.747925,353.547272 1811.927979,355.395325 
	C1811.906372,356.858978 1811.957764,357.927277 1811.934204,359.452942 
	C1810.613037,370.076294 1810.049072,380.391083 1807.876953,390.355255 
	C1806.464844,396.833099 1802.709839,402.800201 1799.866211,409.293152 
	C1798.787231,410.998138 1797.846558,412.406067 1796.604492,413.973572 
	C1793.213989,417.456879 1790.125000,420.780579 1786.699219,424.146790 
	C1781.731812,428.020142 1777.101196,431.851044 1772.134155,435.719971 
	C1771.182495,436.026703 1770.567261,436.295349 1769.770264,436.513519 
	C1769.302490,436.574493 1769.196533,436.779419 1769.185303,437.083649 
	C1769.099976,437.089539 1769.045898,437.251801 1768.682373,437.250793 
	C1753.451782,443.400238 1738.359741,448.679352 1722.065308,449.452728 
	C1721.197266,449.493927 1720.363647,450.261688 1719.171021,450.634583 
	C1717.905273,450.630127 1716.982544,450.682373 1715.707275,450.523865 
	C1704.743164,449.941742 1694.117798,449.789154 1683.525635,449.112854 
	C1677.631714,448.736542 1671.793457,447.487610 1665.930176,446.631927 
M1645.119141,282.274780 
	C1644.575073,282.467224 1644.030884,282.659668 1643.486816,282.852081 
	C1643.614380,283.131012 1643.741943,283.409943 1643.869385,283.688904 
	C1644.429443,283.362701 1644.989502,283.036499 1645.119141,282.274780 
M1657.568726,284.296387 
	C1657.295898,284.010559 1657.022949,283.724731 1656.750122,283.438965 
	C1656.631836,283.552124 1656.404541,283.757446 1656.411011,283.765137 
	C1656.665649,284.066589 1656.941650,284.349976 1657.568726,284.296387 
z"/>
<path fill="#C59D4B" opacity="1.000000" stroke="none" 
	d="
M666.887329,276.995483 
	C666.428772,275.613190 666.270691,274.226929 666.046387,272.424072 
	C666.373901,270.266022 666.767517,268.524506 667.534302,266.370514 
	C668.266846,265.636108 668.626160,265.314178 668.985474,264.992279 
	C669.784729,265.000793 670.583923,265.009308 671.775879,265.365356 
	C672.213440,266.154388 672.258179,266.595886 672.302979,267.037415 
	C671.798157,269.094818 671.293335,271.152252 670.348389,273.691528 
	C669.607605,275.115173 669.306885,276.056976 669.006226,276.998779 
	C668.400085,276.996338 667.793945,276.993896 666.887329,276.995483 
z"/>
<path fill="#CDA75A" opacity="1.000000" stroke="none" 
	d="
M689.869202,311.087952 
	C690.717041,311.551636 691.205444,312.023926 691.856323,312.706177 
	C691.835205,313.820282 691.651550,314.724487 690.774841,315.865997 
	C688.706970,316.027435 687.332153,315.951538 685.957397,315.875641 
	C687.141541,314.282593 688.325684,312.689545 689.869202,311.087952 
z"/>
<path fill="#CDA75A" opacity="1.000000" stroke="none" 
	d="
M665.889771,343.050232 
	C665.655640,342.227692 665.709900,341.403015 665.918457,340.293701 
	C667.078552,340.022125 668.084351,340.035248 669.349182,340.009155 
	C669.652588,341.380524 669.697021,342.791168 669.625610,344.611816 
	C668.399292,344.363922 667.288696,343.705994 665.889771,343.050232 
z"/>
<path fill="#CDA75A" opacity="1.000000" stroke="none" 
	d="
M637.126709,313.862061 
	C639.047424,313.457184 641.104614,313.362152 643.585327,313.404541 
	C641.760315,313.751953 639.511719,313.961914 637.126709,313.862061 
z"/>
<path fill="#CDA75A" opacity="1.000000" stroke="none" 
	d="
M655.981812,315.534546 
	C657.338623,315.098694 658.695435,314.662872 660.052185,314.226990 
	C659.988464,315.107300 659.924805,315.987640 659.299561,316.651733 
	C657.819275,316.135193 656.900513,315.834869 655.981812,315.534546 
z"/>
<path fill="#CDA75A" opacity="1.000000" stroke="none" 
	d="
M676.608521,257.281555 
	C677.449646,258.491974 678.077148,259.916229 678.632568,261.678894 
	C677.838623,260.510040 677.116760,259.002716 676.608521,257.281555 
z"/>
<path fill="#CDA75A" opacity="1.000000" stroke="none" 
	d="
M685.475708,306.053497 
	C686.304626,306.372253 686.835938,306.750122 687.691772,307.224487 
	C687.177490,307.766022 686.338684,308.211029 685.499878,308.656067 
	C685.392578,307.808228 685.285278,306.960419 685.475708,306.053497 
z"/>
<path fill="#CDA75A" opacity="1.000000" stroke="none" 
	d="
M612.040405,306.378540 
	C613.190674,306.535889 614.386353,307.014221 615.795898,307.734619 
	C614.701721,307.550934 613.393799,307.125214 612.040405,306.378540 
z"/>
<path fill="#CDA75A" opacity="1.000000" stroke="none" 
	d="
M705.914001,318.267456 
	C704.842834,318.575439 703.673889,318.579346 702.222412,318.369232 
	C703.231995,318.091248 704.524109,318.027283 705.914001,318.267456 
z"/>
<path fill="#CDA75A" opacity="1.000000" stroke="none" 
	d="
M647.851807,316.849121 
	C646.926147,317.371307 645.801758,317.615784 644.332764,317.751434 
	C645.209839,317.285522 646.431458,316.928467 647.851807,316.849121 
z"/>
<path fill="#CDA75A" opacity="1.000000" stroke="none" 
	d="
M731.895020,315.105896 
	C730.940308,315.539093 729.867249,315.696625 728.390869,315.791748 
	C729.250610,315.429626 730.513672,315.129913 731.895020,315.105896 
z"/>
<path fill="#CDA75A" opacity="1.000000" stroke="none" 
	d="
M723.325684,311.954742 
	C722.573120,311.268768 722.149536,310.541107 721.578003,309.531494 
	C723.152771,309.317871 725.517822,308.849792 723.325684,311.954742 
z"/>
<path fill="#CDA75A" opacity="1.000000" stroke="none" 
	d="
M677.067383,298.015076 
	C677.752625,298.189178 678.151001,298.521851 678.775696,298.986145 
	C678.418091,299.571594 677.834229,300.025482 677.250305,300.479370 
	C677.093750,299.710785 676.937195,298.942230 677.067383,298.015076 
z"/>
<path fill="#CDA75A" opacity="1.000000" stroke="none" 
	d="
M676.658813,362.044250 
	C676.862061,362.860443 676.734741,363.722931 676.377075,364.821869 
	C676.207275,364.069061 676.267761,363.079803 676.658813,362.044250 
z"/>
<path fill="#CDA75A" opacity="1.000000" stroke="none" 
	d="
M669.258301,277.000519 
	C669.306885,276.056976 669.607605,275.115173 670.192017,274.068604 
	C670.411743,274.782562 670.347717,275.601288 670.149170,276.709961 
	C669.846558,277.000702 669.678467,277.001495 669.258301,277.000519 
z"/>
<path fill="#CDA75A" opacity="1.000000" stroke="none" 
	d="
M719.771118,317.620331 
	C719.162537,318.096283 718.366943,318.360107 717.277100,318.494690 
	C717.850037,318.046387 718.717041,317.727295 719.771118,317.620331 
z"/>
<path fill="#CDA75A" opacity="1.000000" stroke="none" 
	d="
M658.498413,381.986816 
	C658.183289,381.890198 658.175476,381.722229 658.171021,381.302307 
	C658.594910,380.714142 659.015503,380.377960 659.696899,379.969666 
	C659.573730,380.570190 659.189758,381.242798 658.498413,381.986816 
z"/>
<path fill="#CDA75A" opacity="1.000000" stroke="none" 
	d="
M668.166687,368.936096 
	C668.070984,368.405945 668.281799,367.868469 668.729980,367.158783 
	C668.802612,367.633942 668.637939,368.281342 668.166687,368.936096 
z"/>
<path fill="#CDA75A" opacity="1.000000" stroke="none" 
	d="
M660.294922,306.973785 
	C660.050171,306.551453 660.097961,306.102905 660.203369,305.320557 
	C660.703857,305.348389 661.146851,305.709991 661.589783,306.071594 
	C661.255615,306.363586 660.921509,306.655579 660.294922,306.973785 
z"/>
<path fill="#CDA75A" opacity="1.000000" stroke="none" 
	d="
M609.048340,304.367401 
	C609.689148,304.438660 610.385681,304.855804 611.229675,305.558502 
	C610.619507,305.467133 609.861755,305.090210 609.048340,304.367401 
z"/>
<path fill="#CDA75A" opacity="1.000000" stroke="none" 
	d="
M644.047302,303.766296 
	C644.524292,303.532898 645.071533,303.542419 645.815918,303.760437 
	C645.381226,303.982361 644.749390,303.995789 644.047302,303.766296 
z"/>
<path fill="#CDA75A" opacity="1.000000" stroke="none" 
	d="
M653.096924,321.906189 
	C653.308411,321.317047 653.858521,320.733337 654.721436,320.125824 
	C654.501282,320.705231 653.968384,321.308411 653.096924,321.906189 
z"/>
<path fill="#CDA75A" opacity="1.000000" stroke="none" 
	d="
M700.968323,347.580383 
	C700.357483,347.498138 699.683533,347.087921 698.884521,346.389648 
	C699.474731,346.485199 700.190002,346.868835 700.968323,347.580383 
z"/>
<path fill="#CDA75A" opacity="1.000000" stroke="none" 
	d="
M677.940674,337.066833 
	C678.394531,337.442657 678.602356,337.954742 678.723511,338.742035 
	C678.322754,338.412537 678.008728,337.807831 677.940674,337.066833 
z"/>
<path fill="#CDA75A" opacity="1.000000" stroke="none" 
	d="
M659.113403,323.685394 
	C659.486450,323.153229 659.870789,322.788910 660.255127,322.424561 
	C660.142395,322.902435 660.029602,323.380310 659.687256,323.880524 
	C659.457581,323.902863 659.124817,323.853210 659.113403,323.685394 
z"/>
<path fill="#CDA75A" opacity="1.000000" stroke="none" 
	d="
M669.232300,364.843628 
	C668.736206,364.515533 668.462402,364.034607 668.246094,363.267944 
	C668.687317,363.551758 669.070984,364.121277 669.232300,364.843628 
z"/>
<path fill="#CDA75A" opacity="1.000000" stroke="none" 
	d="
M673.364502,358.984863 
	C673.190247,358.459778 673.308960,357.894897 673.654541,357.141724 
	C673.806763,357.617340 673.732117,358.281219 673.364502,358.984863 
z"/>
<path fill="#CDA75A" opacity="1.000000" stroke="none" 
	d="
M607.609009,311.960175 
	C607.313232,311.553009 607.278381,311.090240 607.237183,310.278870 
	C607.443848,310.588379 607.656982,311.246460 607.609009,311.960175 
z"/>
<path fill="#CDA75A" opacity="1.000000" stroke="none" 
	d="
M624.069092,311.135651 
	C624.605103,311.062195 625.137390,311.296844 625.828552,311.781250 
	C625.346741,311.835266 624.705994,311.639526 624.069092,311.135651 
z"/>
<path fill="#CDA75A" opacity="1.000000" stroke="none" 
	d="
M697.046997,313.751343 
	C697.522949,313.498444 698.070557,313.498413 698.834167,313.679901 
	C698.406372,313.909027 697.762512,313.956635 697.046997,313.751343 
z"/>
<path fill="#CDA75A" opacity="1.000000" stroke="none" 
	d="
M724.246338,316.211273 
	C723.921692,316.744110 723.261108,317.217072 722.292603,317.595459 
	C722.626587,317.051056 723.268433,316.601227 724.246338,316.211273 
z"/>
<path fill="#CDA75A" opacity="1.000000" stroke="none" 
	d="
M668.875244,264.769836 
	C668.626160,265.314178 668.266846,265.636108 667.663330,266.002747 
	C667.457703,265.492126 667.496338,264.936859 667.747925,264.185120 
	C668.292847,264.082886 668.560913,264.269135 668.875244,264.769836 
z"/>
<path fill="#CDA75A" opacity="1.000000" stroke="none" 
	d="
M678.637512,250.058655 
	C678.584229,250.720734 678.175720,251.444229 677.484253,252.334824 
	C677.561584,251.707977 677.921936,250.914017 678.637512,250.058655 
z"/>
<path fill="#CDA75A" opacity="1.000000" stroke="none" 
	d="
M670.001404,256.910034 
	C669.657043,256.560303 669.510681,256.116730 669.448364,255.325317 
	C669.754761,255.590378 669.977112,256.203308 670.001404,256.910034 
z"/>
<path fill="#CDA75A" opacity="1.000000" stroke="none" 
	d="
M689.051147,319.563232 
	C688.983521,319.259521 689.447937,319.201263 689.681274,319.187683 
	C690.268860,319.563263 690.623108,319.952454 691.079163,320.585449 
	C690.493591,320.508514 689.806152,320.187744 689.051147,319.563232 
z"/>
<path fill="#CDA75A" opacity="1.000000" stroke="none" 
	d="
M650.835571,323.819885 
	C650.844177,323.390961 651.155029,322.915649 651.743164,322.374054 
	C651.726257,322.796356 651.432129,323.284882 650.835571,323.819885 
z"/>
<path fill="#CDA75A" opacity="1.000000" stroke="none" 
	d="
M691.227905,321.107025 
	C691.454102,320.990936 691.810120,321.163696 692.338867,321.588501 
	C692.126892,321.692322 691.742371,321.544098 691.227905,321.107025 
z"/>
<path fill="#CDA75A" opacity="1.000000" stroke="none" 
	d="
M695.228760,323.932312 
	C695.481384,323.833435 695.842224,324.066772 696.382629,324.572998 
	C696.153748,324.652100 695.745361,324.458313 695.228760,323.932312 
z"/>
<path fill="#CDA75A" opacity="1.000000" stroke="none" 
	d="
M683.030640,293.796326 
	C682.935791,293.568756 683.145996,293.223816 683.606567,292.697784 
	C683.683167,292.904114 683.509460,293.291534 683.030640,293.796326 
z"/>
<path fill="#CDA75A" opacity="1.000000" stroke="none" 
	d="
M736.821167,317.907898 
	C736.609924,317.997070 736.279175,317.797394 735.765625,317.366333 
	C735.955811,317.296295 736.328796,317.457642 736.821167,317.907898 
z"/>
<path fill="#C79E4D" opacity="1.000000" stroke="none" 
	d="
M79.881882,99.016922 
	C80.683746,91.817245 80.111763,84.102951 82.575424,77.525749 
	C87.597862,64.117455 103.147621,55.093121 116.261955,56.230965 
	C134.578278,57.820160 146.066666,67.308784 150.714264,85.211426 
	C151.889206,94.013168 150.325974,101.658150 146.637192,109.165207 
	C141.884109,113.832718 137.400925,118.312874 132.552734,122.849030 
	C123.920601,127.612099 115.055984,127.534561 105.729111,125.950699 
	C96.046715,123.354507 89.643608,116.943283 83.711548,109.402763 
	C82.375916,105.693665 81.128899,102.355293 79.881882,99.016922 
z"/>
<path fill="#C69E4D" opacity="1.000000" stroke="none" 
	d="
M459.437744,381.129333 
	C459.377167,383.109375 459.316589,385.089417 459.189880,387.934296 
	C459.281494,393.220062 459.439270,397.640961 459.597046,402.061890 
	C459.496979,404.083099 459.396912,406.104340 459.224274,408.951874 
	C459.297150,418.571014 459.442596,427.363800 459.588043,436.156616 
	C459.468781,437.524475 459.349518,438.892365 458.764465,440.744843 
	C451.546082,441.548950 444.793549,441.868469 437.602112,442.119629 
	C435.103333,442.149292 433.043396,442.247314 430.551331,442.240601 
	C427.746002,442.170410 425.372864,442.204956 422.543640,442.147247 
	C420.589966,442.055115 419.092285,442.062622 417.594696,442.054230 
	C407.865540,441.999756 408.939392,442.809509 408.925140,433.564453 
	C408.846344,382.480164 408.819946,331.395752 408.717102,280.311523 
	C408.712921,278.239014 408.120789,276.167694 407.842407,273.749207 
	C407.767639,272.956726 407.653046,272.510803 407.657013,271.718201 
	C407.660156,270.904419 407.544739,270.437378 407.561707,269.593811 
	C407.401642,267.504181 407.109222,265.791046 406.890869,263.691345 
	C406.798065,262.547852 406.631226,261.790955 406.591553,260.689270 
	C406.410980,259.257019 406.103241,258.169525 405.832123,256.723267 
	C405.731628,255.908096 405.594574,255.451675 405.573700,254.621429 
	C404.212280,250.012070 402.734650,245.776505 401.203735,241.191025 
	C400.600464,239.538651 400.050476,238.236206 399.555115,236.737335 
	C399.523987,236.233429 399.321320,236.079285 398.887360,235.750839 
	C394.240417,230.584671 389.707916,225.746109 385.070923,220.621170 
	C384.302307,220.024368 383.638184,219.713943 382.671753,219.226837 
	C381.751953,218.720657 381.134491,218.391174 380.384399,217.769669 
	C378.524231,216.933334 376.796661,216.388992 374.798035,215.683594 
	C373.527466,215.238861 372.527924,214.955185 371.350708,214.409302 
	C370.428894,213.983368 369.684784,213.819626 368.631592,213.491516 
	C367.862793,213.273132 367.403015,213.219131 366.775726,212.916687 
	C366.051025,212.680664 365.493805,212.693100 364.588928,212.533264 
	C363.473419,212.295258 362.705566,212.229523 361.715118,211.881958 
	C360.310516,211.562134 359.128571,211.524155 357.639343,211.368500 
	C356.902679,211.304413 356.473236,211.358002 355.598175,211.248520 
	C345.439026,211.827576 335.559387,211.711502 326.058167,213.550537 
	C316.345581,215.430481 307.048584,219.312973 299.655487,227.005341 
	C294.401459,232.538849 289.484467,238.010452 284.267120,243.646881 
	C281.243744,250.016296 278.520752,256.220856 275.481293,262.615417 
	C274.606750,264.869049 274.048676,266.932678 273.331421,269.348999 
	C273.112366,270.466370 273.052521,271.230988 272.773529,272.272278 
	C272.446960,273.721497 272.339539,274.894073 271.983337,276.239594 
	C271.761200,276.970367 271.787842,277.528137 271.632874,278.452637 
	C271.376709,279.902222 271.302155,280.985107 270.932861,282.353119 
	C270.563202,287.446289 270.488251,292.254364 270.316101,297.516846 
	C270.258453,307.961975 270.298004,317.952667 270.198730,328.399414 
	C270.185394,337.257599 270.310852,345.659729 270.312988,354.510681 
	C270.256958,363.619812 270.324219,372.280060 270.262146,381.398376 
	C270.219635,390.924072 270.306488,399.991791 270.290039,409.512939 
	C270.261719,418.622925 270.336700,427.279480 270.267975,436.362427 
	C270.693634,441.116364 268.846008,442.328857 264.530731,442.242126 
	C253.679855,442.024231 242.817566,442.374359 231.514862,442.381531 
	C229.574905,442.235962 228.041809,441.975952 226.591888,442.216766 
	C221.565643,443.051514 219.492783,440.936005 220.220947,435.666077 
	C220.304413,426.554901 220.154251,417.777283 220.091400,408.537476 
	C220.146042,399.388397 220.113358,390.701447 220.311768,381.678101 
	C220.392319,372.547455 220.241791,363.753204 220.156433,354.496429 
	C220.186142,345.038971 220.150650,336.044098 220.318298,326.694153 
	C220.371033,319.882996 220.220657,313.426910 220.129395,306.506958 
	C220.160599,285.697571 220.132660,265.352112 220.168121,244.540955 
	C220.176712,235.715912 220.121933,227.356567 220.138275,218.541260 
	C220.158066,214.400238 220.106720,210.715179 220.259796,206.677246 
	C220.372467,191.046738 220.191696,175.768997 220.217514,160.491592 
	C220.237701,148.532227 220.605728,136.573700 220.655167,124.614113 
	C220.732727,105.848671 220.702286,87.082558 220.636887,68.317009 
	C220.627258,65.551765 220.174515,62.788074 219.926773,60.023666 
	C219.975174,59.598103 220.023575,59.172543 220.521606,58.334198 
	C235.887863,57.857529 250.805450,57.866722 265.720459,57.674820 
	C269.153900,57.630646 269.941833,59.207211 269.950317,62.197880 
	C269.970062,69.148979 270.175934,76.099556 270.306396,83.050346 
	C270.219208,101.743713 270.132019,120.437080 269.864075,139.840485 
	C269.862610,142.342056 270.041870,144.133591 270.221161,145.925140 
	C270.203186,151.961807 270.185181,157.998489 270.130524,164.935593 
	C269.844513,176.789825 269.513977,187.742737 269.393982,198.697952 
	C269.356628,202.109894 269.889099,205.528091 270.160675,208.943420 
	C270.122009,210.664368 270.083374,212.385315 270.012268,214.883926 
	C270.155609,216.631577 270.331329,217.601562 270.507050,218.571548 
	C270.847504,218.619293 271.187927,218.667038 271.528351,218.714798 
	C271.962708,217.461670 272.397095,216.208542 272.831451,214.955429 
	C272.831451,214.955429 273.042389,214.595215 273.267365,214.249542 
	C273.750641,213.648697 273.829407,213.346710 273.728668,212.997940 
	C273.937317,212.618759 274.145966,212.239563 274.733093,211.410263 
	C279.701447,204.291611 284.291290,197.623062 288.881165,190.954498 
	C292.527924,187.589172 296.174713,184.223846 300.354523,180.539642 
	C311.330353,174.462997 321.966431,169.169830 333.960114,167.480865 
	C341.306885,166.446259 348.682922,165.619476 356.495514,164.797607 
	C360.651978,164.870850 364.358734,164.845856 368.338348,165.103821 
	C371.089966,165.440292 373.568756,165.493774 376.377045,165.669434 
	C377.170898,165.766693 377.635254,165.741760 378.324524,166.023071 
	C381.380615,166.735886 384.211823,167.142441 387.358215,167.688873 
	C388.128937,167.851715 388.584534,167.874680 389.288818,168.156219 
	C393.374115,169.429138 397.210693,170.443466 401.356140,171.662842 
	C403.928802,172.689392 406.192535,173.510925 408.655884,174.622208 
	C413.512939,177.734802 418.352509,180.302811 422.770782,183.460327 
	C426.371674,186.033707 429.468658,189.312256 432.876709,192.587875 
	C434.083008,194.253830 435.201630,195.610062 436.396362,197.285324 
	C440.636505,205.405060 444.800537,213.205765 449.007812,221.385452 
	C450.463135,227.151260 451.875183,232.538086 453.303955,238.321045 
	C457.045074,254.880249 458.542542,271.265808 458.426819,287.836365 
	C458.403534,291.168030 459.034943,294.504303 459.292419,298.178162 
	C459.290436,298.971313 459.360504,299.424744 459.273621,300.335968 
	C459.280396,309.528717 459.444183,318.263733 459.584045,327.439240 
	C459.539703,336.549194 459.519318,345.218597 459.346405,354.340393 
	C459.275177,363.571625 459.356445,372.350494 459.437744,381.129333 
z"/>
<path fill="#C79E4D" opacity="1.000000" stroke="none" 
	d="
M870.015198,440.994873 
	C870.028992,440.549316 870.042847,440.103760 870.225464,438.984589 
	C870.480774,431.491821 870.682861,424.671570 870.615356,417.853943 
	C870.566467,412.914215 870.160156,407.978027 869.972290,402.584900 
	C869.993591,399.077362 869.955933,396.025177 870.149536,392.640961 
	C870.230896,385.878204 870.080994,379.447479 869.975708,372.587219 
	C869.992126,370.430328 869.963745,368.702911 870.161133,366.640259 
	C870.472046,365.480774 870.631714,364.656555 870.631897,363.832306 
	C870.644836,316.173431 870.650085,268.514557 870.615540,220.855682 
	C870.614624,219.578613 870.167542,218.301849 869.986572,216.557083 
	C870.003357,208.054123 869.962158,200.018997 870.152954,191.660233 
	C870.242615,187.562225 870.100342,183.787872 869.995667,179.581955 
	C870.136475,177.603104 870.239563,176.055832 870.374268,174.034576 
	C874.235352,174.034576 877.616821,174.034576 881.332397,174.267487 
	C890.765259,174.368958 899.864197,174.237503 909.295532,174.154938 
	C910.075073,174.187424 910.522156,174.171021 911.213867,174.351593 
	C912.649475,174.416885 913.840637,174.285233 915.368042,174.184814 
	C916.379395,174.203217 917.054382,174.190384 917.874634,174.575165 
	C918.466614,177.276993 918.913452,179.581177 919.293823,182.222534 
	C919.282227,183.012024 919.336975,183.464340 919.241577,184.360001 
	C918.847534,188.605591 918.388916,192.409531 918.419312,196.209579 
	C918.450378,200.104782 918.960022,203.996155 919.176758,208.326782 
	C919.161316,210.830734 919.229248,212.897125 919.242188,215.283173 
	C920.114380,215.400299 921.041687,215.197784 922.157349,214.711548 
	C922.916931,213.449905 923.488098,212.471985 924.191345,211.526123 
	C924.323425,211.558197 924.497314,211.352478 924.497314,211.352478 
	C924.497314,211.352478 924.362854,211.118134 924.580566,210.806946 
	C928.930786,204.749680 932.760132,198.752625 937.263062,193.313217 
	C945.054016,183.902054 955.116699,177.326462 966.345825,171.808136 
	C967.254578,171.531662 967.752930,171.303284 968.279480,171.201477 
	C968.307678,171.328033 968.538879,171.218521 968.538879,171.218521 
	C968.538879,171.218521 968.392212,171.007172 968.744751,170.823303 
	C974.712036,169.178406 980.326843,167.717377 986.313232,166.412720 
	C989.440491,165.999786 992.196167,165.430481 995.419861,164.916779 
	C1001.608337,164.933838 1007.328735,164.895279 1013.334045,165.120239 
	C1018.445129,166.058548 1023.271423,166.733307 1028.455200,167.589722 
	C1034.847046,169.709381 1040.881470,171.647430 1047.108398,173.853653 
	C1049.674316,175.441055 1052.047607,176.760269 1054.401611,178.216919 
	C1054.382324,178.354355 1054.598877,178.524948 1054.598877,178.524948 
	C1054.598877,178.524948 1054.851074,178.411835 1055.150757,178.622711 
	C1057.941650,180.606216 1060.432861,182.378845 1063.072021,184.444763 
	C1065.765381,187.179565 1068.311035,189.621078 1070.939209,192.325607 
	C1071.328857,192.782303 1071.635986,192.975983 1072.073242,193.467163 
	C1073.238770,195.167282 1074.274292,196.569916 1075.387695,198.294388 
	C1078.612915,204.295715 1081.760010,209.975204 1085.354126,216.461121 
	C1087.209351,213.717316 1088.643921,211.595810 1090.396973,209.323029 
	C1096.392700,203.409775 1102.069824,197.647766 1108.077393,191.794922 
	C1111.637207,188.992081 1114.866699,186.280075 1118.467896,183.493607 
	C1122.867188,181.160934 1126.894531,178.902695 1131.254150,176.694092 
	C1132.857544,175.925507 1134.128784,175.107300 1135.734253,174.248108 
	C1136.674561,173.928162 1137.280762,173.649185 1138.175049,173.480988 
	C1139.092041,173.143112 1139.720947,172.694473 1140.694824,172.208740 
	C1142.687256,171.424805 1144.334839,170.677963 1146.370239,169.961365 
	C1148.487793,169.490845 1150.217651,168.990036 1152.224487,168.585266 
	C1152.990967,168.425995 1153.480347,168.170700 1154.307495,167.930695 
	C1155.074097,167.817825 1155.503174,167.689667 1156.326172,167.649933 
	C1159.457764,167.070679 1162.195190,166.403000 1165.331787,165.783142 
	C1168.148071,165.587479 1170.565430,165.344009 1173.304443,165.341156 
	C1177.441650,165.451279 1181.256958,165.320786 1185.452026,165.237198 
	C1187.585693,165.438766 1189.339844,165.593445 1191.304932,166.014984 
	C1193.317261,166.311615 1195.118286,166.341354 1197.171997,166.430908 
	C1197.761353,166.430786 1198.098145,166.370834 1198.663818,166.608002 
	C1202.273193,167.711288 1205.653687,168.517456 1209.348145,169.488464 
	C1210.127075,169.715500 1210.592041,169.777710 1211.236450,170.114807 
	C1212.623291,170.793732 1213.830933,171.197784 1215.369629,171.748749 
	C1217.683350,172.654083 1219.665649,173.412506 1221.786865,174.451324 
	C1222.629272,175.015701 1223.332886,175.299698 1224.323975,175.757324 
	C1226.108398,176.779877 1227.605225,177.628769 1229.341675,178.733170 
	C1234.385376,183.326218 1239.189697,187.663742 1244.040649,192.345184 
	C1247.508545,197.848007 1250.929688,203.006943 1254.457031,208.518982 
	C1254.864502,209.544067 1255.165771,210.216049 1255.376709,211.218170 
	C1256.041504,212.872147 1256.796753,214.195938 1257.590576,215.865829 
	C1257.837402,217.111923 1258.045654,218.011948 1258.269897,219.280579 
	C1258.951782,221.409103 1259.617554,223.169037 1260.261719,225.283630 
	C1260.401001,226.079391 1260.561890,226.520477 1260.578125,227.334747 
	C1261.057129,230.432922 1261.680664,233.157913 1262.259888,236.233856 
	C1262.313599,237.042221 1262.411499,237.499603 1262.388672,238.344788 
	C1262.595337,240.456665 1262.922729,242.180710 1263.179199,244.365631 
	C1263.346680,248.900131 1263.585083,252.973755 1263.771240,257.508362 
	C1263.736084,262.642029 1263.753418,267.314758 1263.545166,272.325745 
	C1263.463379,281.774445 1263.607178,290.884888 1263.719482,300.312958 
	C1263.892822,301.448425 1264.097534,302.266205 1264.145752,303.435242 
	C1263.889648,311.468079 1263.790161,319.149750 1263.503174,327.283569 
	C1263.465332,336.829926 1263.614868,345.924042 1263.730713,355.484619 
	C1263.739990,364.301819 1263.783203,372.652618 1263.594482,381.337036 
	C1263.436768,390.826660 1263.511108,399.982697 1263.484375,409.554138 
	C1263.500977,413.965576 1263.618652,417.961578 1263.534302,422.285095 
	C1263.465942,425.424011 1263.599487,428.235443 1263.697021,431.458405 
	C1263.684448,433.245850 1263.707886,434.621735 1263.532959,436.253418 
	C1263.409546,437.355316 1263.484375,438.201385 1263.462524,439.390472 
	C1263.379395,440.207153 1263.392944,440.680878 1263.017944,441.282349 
	C1261.986816,441.565613 1261.342896,441.862488 1260.702026,441.855774 
	C1247.079956,441.713257 1233.455200,441.309509 1219.838135,441.489746 
	C1215.071655,441.552856 1213.678955,440.335175 1213.690430,435.458679 
	C1213.818115,381.245331 1213.718384,327.031403 1213.625854,272.817749 
	C1213.622559,270.911713 1213.052979,269.006622 1212.805908,266.660889 
	C1212.751343,264.179657 1212.638306,262.138641 1212.659180,259.688843 
	C1212.388184,257.232513 1211.983154,255.184937 1211.623779,252.795288 
	C1211.568115,252.007339 1211.467041,251.561478 1211.532959,250.773468 
	C1211.375732,249.312698 1211.051392,248.194077 1210.739502,246.743057 
	C1210.601196,245.998032 1210.450195,245.585419 1210.427856,244.800903 
	C1209.046021,240.601227 1207.535522,236.773438 1205.947021,232.614304 
	C1204.632568,230.423645 1203.396240,228.564316 1202.131348,226.354950 
	C1198.890015,223.223892 1195.677246,220.442886 1192.291626,217.356171 
	C1185.698730,215.270950 1179.278564,213.491409 1172.444946,211.565033 
	C1169.666626,211.357391 1167.301758,211.296570 1164.713013,210.979706 
	C1163.015259,210.894119 1161.541504,211.064575 1159.638428,211.175156 
	C1157.508057,211.290955 1155.807007,211.466629 1153.741211,211.493225 
	C1151.768677,211.785309 1150.160645,212.226471 1148.297607,212.645233 
	C1147.707397,212.682297 1147.372070,212.741791 1146.756348,212.638672 
	C1140.171509,214.881073 1133.867310,217.286087 1127.226929,219.753387 
	C1123.935791,221.915344 1120.980835,224.015030 1117.698242,226.184433 
	C1111.123657,231.380661 1105.789917,237.223007 1102.479736,245.081970 
	C1097.891968,254.067673 1094.604736,263.123871 1094.645630,273.183350 
	C1094.619141,273.279663 1094.764404,273.416809 1094.453003,273.619019 
	C1093.913818,275.215240 1093.686035,276.609222 1093.318359,278.390472 
	C1093.159790,279.869415 1093.141113,280.961090 1092.854004,282.357239 
	C1092.516235,287.108002 1092.446899,291.554352 1092.263184,296.397949 
	C1092.229980,297.883514 1092.310913,298.971802 1092.271606,300.509918 
	C1092.219360,309.623016 1092.287231,318.286285 1092.208984,327.361115 
	C1092.108154,329.211182 1092.153564,330.649628 1091.919922,332.371033 
	C1091.824097,336.406616 1092.007568,340.159332 1092.098633,344.364563 
	C1092.056641,347.884003 1092.107178,350.950928 1091.922729,354.235718 
	C1091.861328,355.610809 1092.034790,356.767975 1092.126099,358.391968 
	C1092.110474,366.229645 1092.176880,373.600433 1092.127319,381.428925 
	C1092.119019,390.607513 1092.226807,399.328461 1092.219238,408.415863 
	C1092.142578,409.544006 1092.181152,410.305664 1091.996582,411.185913 
	C1091.920166,411.846802 1092.066895,412.389038 1092.128906,413.397339 
	C1092.106201,421.226868 1092.168091,428.590363 1092.109619,436.344177 
	C1091.306152,438.632751 1090.623291,440.530975 1089.489502,442.305481 
	C1080.387817,442.244629 1071.737305,442.307495 1062.625977,442.237976 
	C1056.746704,442.191742 1051.328003,442.277893 1045.524536,442.256958 
	C1044.074829,442.148987 1043.010010,442.148071 1041.874756,441.670044 
	C1041.753906,439.697449 1041.659424,438.201904 1041.659302,436.706360 
	C1041.655518,386.743591 1041.670044,336.780792 1041.629639,286.818054 
	C1041.628052,284.899048 1041.111450,282.980438 1040.906494,280.611206 
	C1040.799561,277.467407 1040.621094,274.773987 1040.605103,271.713806 
	C1040.673584,270.564972 1040.579590,269.782928 1040.630859,268.575958 
	C1040.462646,265.125244 1040.149292,262.099487 1039.896729,258.684753 
	C1039.810425,257.531982 1039.663574,256.768158 1039.647949,255.640244 
	C1039.457886,253.878281 1039.136475,252.480423 1038.852783,250.723618 
	C1038.740356,249.912506 1038.590210,249.460312 1038.555908,248.690033 
	C1038.221069,247.101486 1037.770264,245.831009 1037.344482,244.176025 
	C1035.986450,239.817230 1034.603760,235.842972 1033.328857,231.745392 
	C1033.436646,231.622055 1033.255371,231.349289 1033.255371,231.349289 
	C1033.255371,231.349289 1032.927979,231.376221 1032.817139,231.041748 
	C1029.159302,225.554474 1026.129517,219.822891 1019.075317,218.307678 
	C1018.802063,217.833679 1018.562378,217.609863 1018.160889,217.123123 
	C1017.035828,216.484161 1016.072632,216.108124 1014.839966,215.525574 
	C1013.044067,214.882141 1011.517639,214.445221 1009.819580,213.765015 
	C1009.083069,213.502563 1008.518127,213.483383 1007.637817,213.328430 
	C1006.868164,213.162323 1006.414001,213.131973 1005.792786,212.855316 
	C1005.068542,212.592590 1004.511230,212.576172 1003.545410,212.426208 
	C1001.415466,212.207352 999.694031,212.122040 997.658447,211.778809 
	C990.065735,211.818481 982.654663,211.357773 975.541382,212.600876 
	C966.126465,214.246231 956.669739,216.599762 949.258240,223.848267 
	C948.652222,224.192673 948.302917,224.532043 947.620972,224.954193 
	C943.824463,228.677948 940.360535,232.318954 936.666931,236.103729 
	C936.326660,236.581665 936.216125,236.915817 935.854370,237.318146 
	C935.324951,237.813950 935.046814,238.241577 934.471802,238.827637 
	C932.592224,242.005417 931.009521,245.024796 929.252075,248.364349 
	C928.717285,249.583649 928.357239,250.482758 927.862732,251.380371 
	C927.728271,251.378860 927.612793,251.618149 927.612793,251.618149 
	C927.612793,251.618149 927.833313,251.768097 927.650818,252.124084 
	C927.246399,253.517746 927.024475,254.555420 926.535278,255.753754 
	C926.081360,256.621429 925.894714,257.328491 925.538696,258.349548 
	C925.315979,259.132416 925.262695,259.601227 924.965759,260.236755 
	C924.698669,260.951477 924.675232,261.499481 924.491211,262.362549 
	C924.292053,263.143799 924.253357,263.609955 923.944519,264.271545 
	C923.609131,265.324829 923.543945,266.182678 923.348511,267.360962 
	C923.197327,268.139130 923.176453,268.596832 922.875244,269.312378 
	C922.234009,273.079224 921.873047,276.588165 921.408386,280.433258 
	C921.324951,281.235870 921.345215,281.702362 921.051514,282.420685 
	C920.555664,285.315277 920.218201,287.957855 920.215332,290.600800 
	C920.163147,339.086853 920.099243,387.573090 920.216003,436.058838 
	C920.226807,440.552216 919.118286,442.240845 914.348938,442.087982 
	C905.883057,441.816620 897.394775,442.244202 888.915833,442.379364 
	C888.473083,442.329407 888.030334,442.279419 887.019531,441.996094 
	C884.511536,441.766205 882.566833,441.858398 880.632751,441.753754 
	C877.090271,441.562134 873.554016,441.254272 870.015198,440.994873 
z"/>
<path fill="#C69E4D" opacity="1.000000" stroke="none" 
	d="
M1659.217529,315.212830 
	C1658.066162,313.081543 1657.136108,311.125854 1655.477051,307.637177 
	C1659.906128,308.654724 1663.606079,308.898895 1666.742188,310.356018 
	C1672.588257,313.072357 1675.247681,312.851105 1679.716553,307.912567 
	C1680.265381,307.306000 1680.895752,306.714996 1681.601440,306.317535 
	C1687.692993,302.886688 1687.700684,302.900330 1688.392456,296.218536 
	C1693.711182,296.804626 1699.078369,297.396057 1704.445435,297.987457 
	C1704.730103,297.104889 1705.014771,296.222321 1705.299438,295.339722 
	C1703.300659,294.220825 1701.420654,292.570160 1699.278809,292.091003 
	C1694.469116,291.015045 1691.519043,288.106018 1688.910278,283.022705 
	C1698.046875,284.916290 1706.458984,286.700409 1714.889771,288.390991 
	C1719.575562,289.330597 1724.313354,290.015198 1728.988281,291.001617 
	C1732.338013,291.708374 1735.774048,292.373657 1738.887085,293.716797 
	C1741.295532,294.755920 1742.856445,296.984680 1740.552612,299.703461 
	C1739.505981,300.938568 1738.203369,301.956909 1736.912720,303.171661 
	C1737.662231,304.785492 1738.331055,306.225281 1739.181885,308.056915 
	C1734.051880,309.474182 1733.579224,311.932159 1738.241577,315.297943 
	C1736.567749,318.968201 1735.104370,322.176849 1733.640991,325.385468 
	C1732.549194,324.274506 1731.457397,323.163574 1730.365601,322.052612 
	C1729.143799,326.124634 1735.837646,328.974060 1731.634644,333.797943 
	C1729.024658,333.496887 1726.833862,332.839691 1724.973877,332.129395 
	C1725.916260,331.979370 1726.527954,331.882477 1727.139648,331.785553 
	C1726.946289,331.335175 1726.753052,330.884796 1726.559692,330.434418 
	C1725.704956,330.993622 1724.850220,331.552826 1723.739990,332.107849 
	C1723.014038,331.909027 1722.543579,331.714355 1722.016602,331.104370 
	C1718.875244,329.462219 1715.837036,328.079620 1712.667358,327.139435 
	C1712.029663,326.950256 1710.893799,328.440643 1709.603760,329.176392 
	C1708.017334,328.852417 1706.814575,328.508728 1705.962036,328.087433 
	C1706.448120,327.391205 1706.583984,326.772552 1706.719971,326.153931 
	C1704.844971,326.821747 1702.051880,322.707550 1700.546753,327.273193 
	C1698.998047,326.913574 1697.826782,326.547424 1696.992920,326.101471 
	C1697.724487,325.639557 1698.118530,325.257446 1698.512451,324.875305 
	C1698.174194,324.634827 1697.575195,324.149597 1697.536621,324.190613 
	C1696.978638,324.784790 1696.495850,325.449615 1695.704346,326.119476 
	C1694.898315,325.903656 1694.382935,325.665833 1693.871826,325.040985 
	C1689.270752,318.861206 1682.048096,320.329437 1676.074951,318.339264 
	C1675.922607,318.288483 1675.325928,319.570953 1674.587646,320.215820 
	C1673.392822,319.868347 1672.546753,319.536713 1671.956787,319.041077 
	C1672.188477,318.395813 1672.163940,317.914612 1672.139526,317.433350 
	C1671.758179,317.978973 1671.376831,318.524597 1670.721436,319.160522 
	C1670.278687,319.343384 1670.109985,319.435974 1669.941406,319.528534 
	C1668.151611,318.811493 1666.361816,318.094452 1664.277832,316.804443 
	C1663.464111,315.544067 1662.944580,314.856689 1662.424927,314.169312 
	C1661.959229,314.741394 1661.493530,315.313446 1661.027832,315.885468 
	C1660.498169,315.719788 1659.968384,315.554108 1659.217529,315.212830 
z"/>
<path fill="#C59C4C" opacity="1.000000" stroke="none" 
	d="
M1693.871826,325.040955 
	C1689.487915,324.394897 1685.108398,323.361816 1680.350098,322.404297 
	C1679.532471,322.348846 1679.093506,322.217804 1678.147461,321.834625 
	C1676.739014,321.132202 1675.837769,320.681915 1674.936523,320.231628 
	C1675.325928,319.570953 1675.922607,318.288483 1676.074951,318.339264 
	C1682.048096,320.329437 1689.270752,318.861206 1693.871826,325.040955 
z"/>
<path fill="#C59C4C" opacity="1.000000" stroke="none" 
	d="
M1661.214844,316.164551 
	C1661.493530,315.313446 1661.959229,314.741394 1662.424927,314.169312 
	C1662.944580,314.856689 1663.464111,315.544067 1663.991089,316.583984 
	C1663.133057,316.772217 1662.267456,316.607941 1661.214844,316.164551 
z"/>
<path fill="#C69E4D" opacity="1.000000" stroke="none" 
	d="
M1648.925537,309.204834 
	C1643.001099,305.827911 1637.293945,302.100098 1631.036133,298.042725 
	C1629.153564,296.467316 1627.822021,295.221436 1626.530884,293.817017 
	C1626.445557,293.401337 1626.263184,293.351990 1625.755615,293.287231 
	C1624.559326,292.055145 1623.631470,291.046143 1622.678955,289.706635 
	C1621.102173,287.309082 1619.550171,285.242004 1617.849854,282.897461 
	C1617.190430,281.727234 1616.679565,280.834473 1616.140747,279.586395 
	C1615.468262,278.297058 1614.823608,277.363007 1614.199707,276.141418 
	C1613.664795,274.870605 1613.109375,273.887299 1612.509277,272.504944 
	C1612.177856,271.086639 1611.891113,270.067383 1611.676758,268.705994 
	C1611.136963,266.921844 1610.524536,265.479858 1609.908447,263.688904 
	C1609.731567,262.912323 1609.558350,262.484741 1609.522461,261.746857 
	C1609.397827,260.641754 1609.135742,259.846893 1608.908691,258.666870 
	C1608.769287,257.534790 1608.594727,256.787872 1608.574951,255.686615 
	C1608.464111,253.898773 1608.198486,252.465286 1608.002075,250.629135 
	C1608.024658,249.141418 1607.977905,248.056381 1608.172607,246.647263 
	C1609.833740,236.868896 1611.253174,227.414612 1612.843384,217.617447 
	C1613.779541,214.899109 1614.545044,212.523651 1615.531494,210.067505 
	C1616.037842,209.778351 1616.150146,209.500092 1616.357910,209.018250 
	C1616.982788,208.244614 1617.339478,207.604813 1617.872192,206.662292 
	C1618.760132,204.929916 1619.472046,203.500259 1620.476074,201.910583 
	C1622.492554,199.601074 1624.217041,197.451614 1626.251465,195.194260 
	C1627.419556,194.157700 1628.277466,193.229019 1629.486450,192.246094 
	C1634.549683,188.738678 1639.261841,185.285477 1644.281006,181.836914 
	C1645.123779,181.288757 1645.659424,180.735992 1646.090332,180.137405 
	C1645.985596,180.091583 1646.181763,180.209595 1646.545288,180.182220 
	C1656.625000,176.481689 1666.341309,172.808533 1676.465088,169.161697 
	C1681.239868,168.255722 1685.607300,167.323425 1690.236328,166.523575 
	C1691.003906,166.453659 1691.509888,166.251282 1692.360596,166.075714 
	C1694.795532,165.878098 1696.885620,165.653656 1699.333496,165.575165 
	C1701.453369,165.424271 1703.215454,165.127411 1705.441406,164.904755 
	C1711.604736,164.987137 1717.304077,164.995316 1723.140137,165.211746 
	C1723.865845,165.335236 1724.454712,165.250473 1725.471191,165.241486 
	C1727.643799,165.343353 1729.388672,165.369476 1731.348145,165.637665 
	C1733.872681,165.947128 1736.182861,166.014496 1738.561768,166.112106 
	C1738.630615,166.142334 1738.668945,166.287582 1738.790161,166.646774 
	C1744.949341,168.610916 1750.987305,170.215866 1757.344971,172.011414 
	C1766.745850,176.667206 1775.827148,181.132385 1785.006348,185.893234 
	C1788.067505,188.464294 1791.030762,190.739700 1794.133545,193.317505 
	C1797.368408,196.806992 1800.543335,199.921585 1803.528442,203.208466 
	C1805.306641,205.166168 1805.533569,206.988937 1802.973267,208.956909 
	C1798.948975,212.050140 1795.260376,215.580261 1791.108643,218.915100 
	C1788.836670,220.519073 1786.885742,222.133286 1784.598877,223.847382 
	C1780.144043,226.956497 1776.025146,229.965714 1772.029053,232.885162 
	C1767.603882,228.965729 1763.526001,225.353729 1759.301758,221.459534 
	C1758.433838,220.822830 1757.712036,220.468323 1756.788330,219.932983 
	C1756.126953,219.472580 1755.667480,219.192993 1755.074585,218.599579 
	C1752.281128,216.921661 1749.621094,215.557602 1746.723877,214.054138 
	C1746.130981,213.845383 1745.775146,213.776031 1745.236694,213.401871 
	C1728.914551,205.690659 1711.855591,206.675919 1694.806396,207.621185 
	C1694.562866,207.634689 1694.341797,208.052826 1693.722656,208.222198 
	C1692.575562,208.316681 1691.816162,208.471069 1690.688232,208.481018 
	C1687.769409,209.160034 1685.219116,209.983505 1682.304565,210.828888 
	C1679.300415,211.946365 1676.660522,213.041931 1673.687256,214.139236 
	C1672.043335,215.145767 1670.732788,216.150558 1669.095947,217.277679 
	C1662.127930,221.974869 1657.557007,227.937469 1656.020264,236.188538 
	C1655.843994,236.862289 1655.894897,237.433090 1655.862915,238.434647 
	C1655.819824,240.905853 1655.859619,242.946320 1655.710938,245.200470 
	C1655.768433,246.239059 1656.014404,247.063950 1656.218262,248.254608 
	C1656.318237,249.085464 1656.460205,249.550552 1656.493408,250.346649 
	C1657.204468,252.282135 1658.024170,253.886612 1658.832275,255.822754 
	C1659.582520,257.425873 1660.344238,258.697266 1661.143921,260.277985 
	C1661.759033,261.137054 1662.336304,261.686829 1662.984863,262.541626 
	C1663.781738,263.871582 1664.507202,264.896515 1665.232666,265.921448 
	C1664.843384,267.368530 1664.454224,268.815552 1663.866577,271.000000 
	C1659.625854,271.000000 1654.808960,271.454285 1650.116577,270.884033 
	C1644.360107,270.184448 1640.947388,273.914398 1636.910889,276.620636 
	C1636.091187,277.170227 1635.400146,277.914398 1634.661133,278.581451 
	C1633.580078,279.557220 1632.508911,280.544098 1631.433594,281.526184 
	C1632.836792,281.980530 1634.240112,282.434875 1636.140991,283.050385 
	C1635.069946,284.968994 1634.018555,286.852478 1633.142212,288.422119 
	C1636.516968,290.880066 1639.614136,293.135925 1642.711304,295.391785 
	C1642.507690,295.796326 1642.303955,296.200836 1642.100342,296.605347 
	C1644.496338,296.303558 1646.892212,296.001801 1649.372559,295.689392 
	C1646.448486,290.654205 1647.150513,289.392548 1653.710815,288.330078 
	C1654.655762,292.137177 1649.947876,299.038788 1660.254150,298.374786 
	C1655.811523,302.564758 1652.477173,305.709351 1648.925537,309.204834 
z"/>
<path fill="#C69E4D" opacity="1.000000" stroke="none" 
	d="
M1645.334351,282.492554 
	C1644.989502,283.036499 1644.429443,283.362701 1643.869385,283.688904 
	C1643.741943,283.409943 1643.614380,283.131012 1643.486816,282.852112 
	C1644.030884,282.659668 1644.575073,282.467224 1645.334351,282.492554 
z"/>
<path fill="#CDA75A" opacity="1.000000" stroke="none" 
	d="
M1730.974854,288.952942 
	C1730.848267,288.691803 1730.865356,288.242310 1730.900513,288.019104 
	C1731.491821,288.083221 1732.047974,288.370544 1732.771973,288.920959 
	C1732.327026,289.194031 1731.714233,289.204041 1730.974854,288.952942 
z"/>
<path fill="#CDA75A" opacity="1.000000" stroke="none" 
	d="
M1736.114868,290.036377 
	C1736.700684,289.930145 1737.425293,290.079224 1738.318359,290.500244 
	C1737.742432,290.612000 1736.998047,290.451843 1736.114868,290.036377 
z"/>
<path fill="#CDA75A" opacity="1.000000" stroke="none" 
	d="
M1726.088867,287.785278 
	C1726.756348,287.675964 1727.540039,287.878845 1728.487427,288.366608 
	C1727.835815,288.466797 1727.020508,288.282166 1726.088867,287.785278 
z"/>
<path fill="#C69E4D" opacity="1.000000" stroke="none" 
	d="
M1657.391724,284.466064 
	C1656.941650,284.349976 1656.665649,284.066589 1656.411011,283.765137 
	C1656.404541,283.757446 1656.631836,283.552124 1656.750122,283.438965 
	C1657.022949,283.724731 1657.295898,284.010559 1657.391724,284.466064 
z"/>
<path fill="#C69E4D" opacity="1.000000" stroke="none" 
	d="
M1678.713623,273.150513 
	C1678.946411,273.158997 1678.952393,273.588104 1678.937866,273.802185 
	C1678.678467,273.945496 1678.464722,273.821198 1678.171387,273.492920 
	C1678.060547,273.342529 1678.480835,273.142029 1678.713623,273.150513 
z"/>
<path fill="#C69E4D" opacity="1.000000" stroke="none" 
	d="
M1676.167358,272.510254 
	C1676.393555,272.149658 1676.647949,272.218628 1676.848877,272.800110 
	C1676.644775,272.947357 1676.444702,272.823090 1676.167358,272.510254 
z"/>
<path fill="#C9A050" opacity="1.000000" stroke="none" 
	d="
M621.497192,358.483307 
	C621.515503,358.477539 621.478882,358.489075 621.497192,358.483307 
z"/>
<path fill="#C59C4C" opacity="1.000000" stroke="none" 
	d="
M1710.899658,330.205994 
	C1710.866821,329.855408 1710.695679,329.596222 1710.186890,329.292542 
	C1710.893799,328.440643 1712.029663,326.950256 1712.667358,327.139435 
	C1715.837036,328.079620 1718.875244,329.462219 1722.016602,331.104340 
	C1722.073242,331.519653 1721.734619,331.885925 1721.254395,331.942444 
	C1720.515869,332.030792 1720.257324,332.062622 1719.804688,331.815857 
	C1717.390381,331.197937 1715.170166,330.858673 1712.625000,330.382080 
	C1711.833130,330.231812 1711.366455,330.218903 1710.899658,330.205994 
z"/>
<path fill="#C59C4C" opacity="1.000000" stroke="none" 
	d="
M1705.962036,328.087402 
	C1704.187988,327.995270 1702.764160,327.825531 1701.132202,327.461243 
	C1702.051880,322.707550 1704.844971,326.821747 1706.719971,326.153931 
	C1706.583984,326.772552 1706.448120,327.391205 1705.962036,328.087402 
z"/>
<path fill="#C59C4C" opacity="1.000000" stroke="none" 
	d="
M1724.973877,332.129395 
	C1724.643066,332.182495 1724.310303,332.228699 1724.152832,332.170349 
	C1724.850220,331.552826 1725.704956,330.993622 1726.559692,330.434418 
	C1726.753052,330.884796 1726.946289,331.335175 1727.139648,331.785553 
	C1726.527954,331.882477 1725.916260,331.979370 1724.973877,332.129395 
z"/>
<path fill="#C59C4C" opacity="1.000000" stroke="none" 
	d="
M1696.992920,326.101501 
	C1696.655396,326.181305 1696.314453,326.223267 1696.154785,326.160339 
	C1696.495850,325.449615 1696.978638,324.784790 1697.536621,324.190613 
	C1697.575195,324.149597 1698.174194,324.634827 1698.512451,324.875305 
	C1698.118530,325.257446 1697.724487,325.639557 1696.992920,326.101501 
z"/>
<path fill="#C59C4C" opacity="1.000000" stroke="none" 
	d="
M1671.956787,319.041077 
	C1671.700684,319.205078 1671.332886,319.216644 1671.164307,319.143433 
	C1671.376831,318.524597 1671.758179,317.978973 1672.139526,317.433350 
	C1672.163940,317.914612 1672.188477,318.395813 1671.956787,319.041077 
z"/>
</svg>